<?xml version="1.0" encoding="UTF-8"?>
<!DOCTYPE svg PUBLIC "-//W3C//DTD SVG 1.1//EN" "http://www.w3.org/Graphics/SVG/1.1/DTD/svg11.dtd">
<!-- Creator: CorelDRAW 2019 (64 Bit) -->
<svg xmlns="http://www.w3.org/2000/svg" xml:space="preserve" width="210mm" height="208.399mm" version="1.1" style="shape-rendering:geometricPrecision; text-rendering:geometricPrecision; image-rendering:optimizeQuality; fill-rule:evenodd; clip-rule:evenodd"
viewBox="0 0 24627.9 24440.17"
 xmlns:xlink="http://www.w3.org/1999/xlink"
 xmlns:xodm="http://www.corel.com/coreldraw/odm/2003">
 <defs>
  <style type="text/css">
   <![CDATA[
    .fil0 {fill:#D2D3D5;fill-rule:nonzero}
   ]]>
  </style>
 </defs>
 <g id="Camada_x0020_1">
  <metadata id="CorelCorpID_0Corel-Layer"/>
  <g id="add-user-svgrepo-com.svg">
   <g id="XMLID_455_">
    <path id="XMLID_458_" class="fil0" d="M1126.29 21436.77l9430.37 0c1445.08,1828.17 3681.49,3003.41 6187.31,3003.41 4347.2,0 7883.93,-3536.73 7883.93,-7883.93 0,-4347.2 -3536.73,-7883.93 -7883.93,-7883.93 -2589.53,0 -4891.41,1255.12 -6329.52,3188.87 -582.88,-122.24 -1178.39,-185.46 -1779.67,-185.46 -4761.22,0 -8634.77,3873.56 -8634.77,8634.77 0,622.01 504.27,1126.27 1126.28,1126.27zm15617.68 -10511.9c3105.14,0 5631.38,2526.23 5631.38,5631.38 0,3105.14 -2526.23,5631.38 -5631.38,5631.38 -3105.14,0 -5631.38,-2526.23 -5631.38,-5631.38 0,-3105.14 2526.23,-5631.38 5631.38,-5631.38z"/>
    <path id="XMLID_461_" class="fil0" d="M8634.78 0c-2598.09,0 -4711.65,2113.65 -4711.65,4711.65 0,2598.01 2113.57,4711.51 4711.65,4711.51 2598.02,0 4711.58,-2113.49 4711.58,-4711.51 0,-2598.02 -2113.57,-4711.65 -4711.58,-4711.65z"/>
    <path id="XMLID_462_" class="fil0" d="M14491.42 17682.52l1126.27 0 0 1126.28c0,622.01 504.27,1126.28 1126.28,1126.28 622.01,0 1126.28,-504.27 1126.28,-1126.28l0 -1126.28 1126.27 0c622.01,0 1126.28,-504.27 1126.28,-1126.28 0,-622.01 -504.27,-1126.28 -1126.28,-1126.28l-1126.28 0.01 0 -1126.28c0,-622.01 -504.27,-1126.28 -1126.28,-1126.28 -622.01,0 -1126.28,504.27 -1126.28,1126.28l0 1126.28 -1126.26 0c-622.01,0 -1126.28,504.27 -1126.28,1126.28 0,622.01 504.27,1126.27 1126.28,1126.27z"/>
   </g>
   <g>
   </g>
   <g>
   </g>
   <g>
   </g>
   <g>
   </g>
   <g>
   </g>
   <g>
   </g>
   <g>
   </g>
   <g>
   </g>
   <g>
   </g>
   <g>
   </g>
   <g>
   </g>
   <g>
   </g>
   <g>
   </g>
   <g>
   </g>
   <g>
   </g>
  </g>
 </g>
</svg>
