<?xml version="1.0" encoding="UTF-8"?>
<!DOCTYPE svg PUBLIC "-//W3C//DTD SVG 1.1//EN" "http://www.w3.org/Graphics/SVG/1.1/DTD/svg11.dtd">
<!-- Creator: CorelDRAW 2019 (64 Bit) -->
<svg xmlns="http://www.w3.org/2000/svg" xml:space="preserve" width="210mm" height="162.978mm" version="1.1" style="shape-rendering:geometricPrecision; text-rendering:geometricPrecision; image-rendering:optimizeQuality; fill-rule:evenodd; clip-rule:evenodd"
viewBox="0 0 24041.13 18658.03"
 xmlns:xlink="http://www.w3.org/1999/xlink"
 xmlns:xodm="http://www.corel.com/coreldraw/odm/2003">
 <defs>
  <style type="text/css">
   <![CDATA[
    .fil0 {fill:#D2D3D5;fill-rule:nonzero}
   ]]>
  </style>
 </defs>
 <g id="Camada_x0020_1">
  <metadata id="CorelCorpID_0Corel-Layer"/>
  <g id="equipment-box-svgrepo-com.svg">
   <path class="fil0" d="M24034.53 4159.3c-4.5,-22 -11.26,-43.17 -19.95,-63.34l-1670.37 -3897.51c-51.6,-120.39 -169.98,-198.44 -300.94,-198.44l-20045.43 0.01c-130.96,0 -249.34,78.05 -300.94,198.44l-1670.37 3897.59c-8.64,20.13 -15.41,41.25 -19.91,63.21 -4.53,21.99 -6.63,44.09 -6.63,66.04l0 14105.35c0,180.8 146.58,327.38 327.38,327.38l23386.35 0c180.85,0 327.38,-146.58 327.38,-327.38l0 -14105.35c0.05,-21.96 -2.1,-44.05 -6.59,-66zm-648.18 13843.96l-22731.57 0 0 -13450.75 18604.42 0c180.85,0 327.38,-146.58 327.38,-327.38 0,-180.8 -146.54,-327.38 -327.38,-327.38l-18435.31 -0.01 1389.82 -3242.95 19613.68 0 1389.86 3242.95 -1174.01 0c-180.85,0 -327.38,146.58 -327.38,327.38 0,180.8 146.54,327.38 327.38,327.38l1343.11 0.01 0 13450.75zm-1076.14 -14671.04c60.5,-92.15 70.59,-208.61 26.75,-309.8l-776.3 -1792.77c-51.86,-119.78 -169.94,-197.31 -300.46,-197.31l-18479.3 0.01c-130.52,0 -248.55,77.53 -300.41,197.31l-776.3 1792.77c-43.82,101.18 -33.74,217.61 26.75,309.8 60.49,92.19 163.39,147.67 273.65,147.67l20031.97 -0.01c110.26,0 213.11,-55.52 273.65,-147.67zm-19807.1 -507.1l492.79 -1137.99 18049.34 0 492.79 1137.99 -19034.91 0zm4506.1 9981.69l-3897.73 0c-180.8,0 -327.38,146.58 -327.38,327.38l0 2784.09c0,180.8 146.58,327.38 327.38,327.38l3897.73 0c180.8,0 327.38,-146.58 327.38,-327.38l0 -2784.09c0,-180.8 -146.58,-327.38 -327.38,-327.38zm-327.38 2784.09l-3242.95 0 0 -2129.32 3242.95 0 0 2129.32zm10022.72 -2456.7l0 2784.09c0,180.8 146.54,327.38 327.38,327.38l3897.73 0c180.85,0 327.38,-146.58 327.38,-327.38l0 -2784.09c0,-180.8 -146.54,-327.38 -327.38,-327.38l-3897.73 0c-180.8,0 -327.38,146.58 -327.38,327.38zm654.77 327.38l3242.95 0 0 2129.32 -3242.95 0 0 -2129.32zm-16245.67 -8207.51l0 2868.77c0,180.8 146.58,327.38 327.38,327.38l1899.89 0 0 458.86 -1899.88 0c-180.8,0 -327.38,146.58 -327.38,327.38l0 8133.4c0,180.8 146.58,327.38 327.38,327.38l21159.07 0.01c180.85,0 327.38,-146.58 327.38,-327.38l0 -8133.41c0,-180.8 -146.54,-327.38 -327.38,-327.38l-1899.84 0 0 -458.86 1899.84 0c180.85,0 327.38,-146.58 327.38,-327.38l0 -2868.77c0,-180.8 -146.54,-327.38 -327.38,-327.38l-21159.07 -0.01c-180.81,0 -327.39,146.55 -327.39,327.39zm21159.08 4309.79l0 7478.63 -20504.3 -0.01 0 -7478.62 1572.5 0 0 1064.66c0,180.8 146.58,327.38 327.38,327.38l2784.1 0c180.8,0 327.38,-146.58 327.38,-327.38l0 -1064.66 10481.58 0 0 1064.66c0,180.8 146.54,327.38 327.38,327.38l2784.09 0c180.85,0 327.38,-146.58 327.38,-327.38l0 -1064.66 1572.51 0zm-2227.27 -1441.85c0,0.31 -0.05,0.57 -0.05,0.82 0,0.25 0.05,0.57 0.05,0.82l0 1111.94c0,0.26 -0.05,0.57 -0.05,0.82 0,0.25 0.05,0.57 0.05,0.82l0 1063.83 -2129.32 0.01 0 -1063.83c0,-0.26 0.05,-0.57 0.05,-0.82 0,-0.25 -0.05,-0.57 -0.05,-0.82l0 -2177.46 2129.32 -0.01 0 1063.88zm-2784.09 787.07l-10481.58 0 0 -458.86 10481.58 0 0 458.86zm-11136.36 -786.68c0,0.13 0,0.26 0,0.44 0,0.17 0,0.26 0,0.44l0 2177.86 -2129.31 0 0 -3242.95 2129.31 0 0 1064.22zm-4356.58 -2540.95l20504.3 0 0 2214 -1572.46 0 0 -1064.66c0,-180.8 -146.54,-327.38 -327.38,-327.38l-2784.09 -0.01c-180.85,0 -327.38,146.58 -327.38,327.38l0 1064.66 -10481.58 0.01 0 -1064.66c0,-180.8 -146.58,-327.38 -327.38,-327.38l-2784.1 -0.01c-180.8,0 -327.38,146.58 -327.38,327.38l0 1064.66 -1572.54 0.01 0 -2214zm18359.36 8207.96l-2293.97 0c-180.85,0 -327.38,146.58 -327.38,327.38l0 930.69c0,180.8 146.54,327.38 327.38,327.38l2293.97 0.01c180.85,0 327.38,-146.58 327.38,-327.38l0 -930.69c0.01,-180.81 -146.54,-327.39 -327.38,-327.39zm-327.38 930.69l-1639.2 0 0 -275.92 1639.2 0 0 275.92zm-15887.02 654.78l2293.97 0c180.8,0 327.38,-146.58 327.38,-327.38l0 -930.69c0,-180.8 -146.58,-327.38 -327.38,-327.38l-2293.97 -0.01c-180.8,0 -327.38,146.58 -327.38,327.38l0 930.69c-0.01,180.81 146.57,327.39 327.38,327.39zm327.38 -930.7l1639.19 0 0 275.92 -1639.19 0 0 -275.92zm14216.1 -5091.81l1047.94 0c180.85,0 327.38,-146.58 327.38,-327.38l0 -1201.46c0,-180.8 -146.54,-327.38 -327.38,-327.38l-1047.94 -0.01c-180.85,0 -327.38,146.58 -327.38,327.38l0 1201.46c-0.01,180.81 146.54,327.39 327.38,327.39zm327.38 -1201.46l393.16 0 0 546.7 -393.16 -0.01 0 -546.68zm-14247.88 1201.46l1047.94 0c180.8,0 327.38,-146.58 327.38,-327.38l0 -1201.46c0,-180.8 -146.58,-327.38 -327.38,-327.38l-1047.94 -0.01c-180.8,0 -327.38,146.58 -327.38,327.38l0 1201.46c0,180.81 146.58,327.39 327.38,327.39zm327.39 -1201.46l393.16 0 0 546.7 -393.16 -0.01 0 -546.68z"/>
   <g>
   </g>
   <g>
   </g>
   <g>
   </g>
   <g>
   </g>
   <g>
   </g>
   <g>
   </g>
   <g>
   </g>
   <g>
   </g>
   <g>
   </g>
   <g>
   </g>
   <g>
   </g>
   <g>
   </g>
   <g>
   </g>
   <g>
   </g>
   <g>
   </g>
  </g>
 </g>
</svg>
