<?xml version="1.0" encoding="UTF-8"?>
<!DOCTYPE svg PUBLIC "-//W3C//DTD SVG 1.1//EN" "http://www.w3.org/Graphics/SVG/1.1/DTD/svg11.dtd">
<!-- Creator: CorelDRAW 2019 (64 Bit) -->
<svg xmlns="http://www.w3.org/2000/svg" xml:space="preserve" width="152.753mm" height="170.758mm" version="1.1" style="shape-rendering:geometricPrecision; text-rendering:geometricPrecision; image-rendering:optimizeQuality; fill-rule:evenodd; clip-rule:evenodd"
viewBox="0 0 13131.09 14678.82"
 xmlns:xlink="http://www.w3.org/1999/xlink"
 xmlns:xodm="http://www.corel.com/coreldraw/odm/2003">
 <defs>
  <style type="text/css">
   <![CDATA[
    .fil0 {fill:#D2D3D5;fill-rule:nonzero}
   ]]>
  </style>
 </defs>
 <g id="Camada_x0020_1">
  <metadata id="CorelCorpID_0Corel-Layer"/>
  <g id="add-hotel-symbol-svgrepo-com.svg">
   <g>
    <g>
     <path class="fil0" d="M-0 985.73l0 12946.69 6731 0c-219.9,-224.02 -411.25,-475.69 -573.87,-746.41l-1181.27 0 0 -1409.88c0,-457.31 -371.96,-829.27 -829.27,-829.27l-83.06 0c-457.26,0 -829.22,371.96 -829.22,829.27l0 1409.88 -2487.91 0 0 -12200.28c0,-158.9 104.22,-239.32 309.76,-239.32l6097.85 -0.02c205.56,0 309.81,80.44 309.81,239.32l0 6761.33c233.73,-146.99 483.45,-269.72 746.4,-366.12l0 -414.73 497.55 0.02 746.41 0 3234.29 0 0 -5473.47 -3234.29 0 -746.41 0 -497.55 0 0 -507.01c0,-580.48 -434.49,-985.73 -1056.21,-985.73l-6097.85 0c-621.72,0 -1056.15,405.25 -1056.15,985.73zm3980.7 10790.4c0,-45.93 37.03,-82.88 82.83,-82.88l83.06 0c45.84,0 82.88,36.95 82.88,82.88l0 1409.88 -248.79 0 0 -1409.88 0.03 0zm7961.37 -9536.98l0 3980.64 -2487.9 0.03 0 -3980.67 2487.9 0zm-3234.3 0l0 3980.64 -497.55 0.03 0 -3980.67 497.55 0z"/>
     <path class="fil0" d="M2736.75 2094.08c0,-332.14 -269.17,-601.33 -601.33,-601.33l-41.52 0c-331.9,0 -601.09,269.17 -601.09,601.33l0 1886.57 1243.95 0 0 -1886.57z"/>
     <path class="fil0" d="M2736.75 5079.59c0,-332.11 -269.17,-601.33 -601.33,-601.33l-41.52 0c-331.9,0 -601.09,269.17 -601.09,601.33l0 1886.62 1243.95 0 0 -1886.62z"/>
     <path class="fil0" d="M2094.08 7463.76c-332.1,0 -601.33,269.23 -601.33,601.33l0 1886.62 1243.97 0 0 -1886.62c0,-332.11 -269.17,-601.33 -601.33,-601.33l-41.31 0z"/>
     <path class="fil0" d="M4727.1 2094.08c0,-332.14 -269.23,-601.33 -601.33,-601.33l-41.52 0c-331.91,0 -601.1,269.17 -601.1,601.33l0 1886.57 1244.01 0 0 -1886.57 -0.06 0z"/>
     <path class="fil0" d="M6717.42 2094.08c0,-332.14 -269.17,-601.33 -601.33,-601.33l-41.54 0c-331.91,0 -601.1,269.17 -601.1,601.33l0 1886.57 1244.01 0 0 -1886.57 -0.03 0z"/>
     <path class="fil0" d="M4727.1 5079.59c0,-332.11 -269.23,-601.33 -601.33,-601.33l-41.52 0c-331.91,0 -601.1,269.17 -601.1,601.33l0 1886.62 1244.01 0 0 -1886.62 -0.06 0z"/>
     <path class="fil0" d="M5473.47 6966.21l1243.98 0 0 -1886.62c0,-332.11 -269.17,-601.33 -601.33,-601.33l-41.52 0c-331.9,0 -601.09,269.17 -601.09,601.33l0 1886.62 -0.03 0z"/>
     <path class="fil0" d="M4084.43 7463.76c-332.11,0 -601.33,269.23 -601.33,601.33l0 1886.62 1244 0 0 -1886.62c0,-332.11 -269.23,-601.33 -601.33,-601.33l-41.34 0z"/>
     <path class="fil0" d="M5473.47 9951.72l289.37 0c188.79,-609.33 520.9,-1155.54 954.63,-1602.08l0 -284.73c0,-331.91 -269.17,-601.1 -601.33,-601.1l-41.54 0c-331.9,0 -601.09,269.23 -601.09,601.33l0 1886.57 -0.03 0z"/>
     <polygon class="fil0" points="10200.51,4229.46 11195.67,4229.46 11195.67,5224.65 11444.46,5224.65 11444.46,3234.3 11195.67,3234.3 11195.67,3980.65 10200.51,3980.65 10200.51,3234.3 9951.72,3234.3 9951.72,5224.65 10200.51,5224.65 "/>
     <path class="fil0" d="M9585.35 7588.21c-487.41,0 -951.96,99.1 -1375.15,277.94 -268.03,113.2 -516.79,261.44 -746.4,433.91 -285.25,214.31 -536.97,469.18 -746.4,758.09 -197.04,271.62 -356.07,571.65 -470.28,893.62 -131.57,370.22 -206.75,767.01 -206.75,1181.75 0,765.29 246.12,1472.56 660.14,2052.5 201.52,282.58 443.3,533.54 717.12,746.41 600.09,465.98 1351.32,746.4 2168.15,746.4 1954.85,0 3545.31,-1590.41 3545.31,-3545.3 0,-1954.89 -1590.4,-3545.31 -3545.74,-3545.31zm0 6344.15c-500.05,0 -968.71,-133.4 -1375.15,-364.15 -283.3,-160.62 -535.49,-369.32 -746.4,-614.48 -420.8,-489.79 -677.36,-1125.4 -677.36,-1820.26 0,-694.86 256.56,-1330.46 677.36,-1820.25 210.86,-245.4 463.1,-453.87 746.4,-614.48 406.71,-230.53 875.62,-363.91 1375.15,-363.91 1543.27,0 2798.9,1255.63 2798.9,2798.9 0,1543.27 -1255.61,2798.63 -2798.9,2798.63z"/>
     <polygon class="fil0" points="10200.51,10698.12 10200.51,9205.36 9205.32,9205.36 9205.32,10698.12 8210.21,10698.12 7712.56,10698.12 7712.56,11693.26 8210.21,11693.26 9205.32,11693.26 9205.32,13186.02 10200.51,13186.02 10200.51,11693.26 11693.26,11693.26 11693.26,10698.12 "/>
    </g>
   </g>
   <g>
   </g>
   <g>
   </g>
   <g>
   </g>
   <g>
   </g>
   <g>
   </g>
   <g>
   </g>
   <g>
   </g>
   <g>
   </g>
   <g>
   </g>
   <g>
   </g>
   <g>
   </g>
   <g>
   </g>
   <g>
   </g>
   <g>
   </g>
   <g>
   </g>
  </g>
 </g>
</svg>
