<?xml version="1.0" encoding="UTF-8"?>
<!DOCTYPE svg PUBLIC "-//W3C//DTD SVG 1.1//EN" "http://www.w3.org/Graphics/SVG/1.1/DTD/svg11.dtd">
<!-- Creator: CorelDRAW 2019 (64 Bit) -->
<svg xmlns="http://www.w3.org/2000/svg" xml:space="preserve" width="209.902mm" height="210mm" version="1.1" style="shape-rendering:geometricPrecision; text-rendering:geometricPrecision; image-rendering:optimizeQuality; fill-rule:evenodd; clip-rule:evenodd"
viewBox="0 0 27128.86 27141.58"
 xmlns:xlink="http://www.w3.org/1999/xlink"
 xmlns:xodm="http://www.corel.com/coreldraw/odm/2003">
 <defs>
  <style type="text/css">
   <![CDATA[
    .fil0 {fill:#848688;fill-rule:nonzero}
   ]]>
  </style>
 </defs>
 <g id="Camada_x0020_1">
  <metadata id="CorelCorpID_0Corel-Layer"/>
  <g id="close-svgrepo-com.svg">
   <g id="XMLID_28_">
    <path id="XMLID_29_" class="fil0" d="M13564.44 0c-3624.96,0 -7032.8,1411.61 -9595.94,3974.76 -5291.29,5291.21 -5291.29,13900.69 -0.17,19191.98 2563.15,2563.24 5971.15,3974.85 9596.11,3974.85 3624.8,0 7032.8,-1411.61 9595.94,-3974.85 5291.29,-5291.29 5291.29,-13900.77 0,-19191.98 -2563.15,-2563.15 -5971.15,-3974.76 -9595.94,-3974.76zm6106.53 19677.23c-240.98,240.9 -556.65,361.4 -872.39,361.4 -315.67,0 -631.49,-120.5 -872.23,-361.4l-4361.91 -4361.73 -4361.82 4361.82c-240.98,240.9 -556.65,361.4 -872.39,361.4 -315.67,0 -631.49,-120.5 -872.23,-361.4 -481.89,-481.72 -481.89,-1262.91 0,-1744.71l4361.73 -4361.82 -4361.82 -4361.82c-481.89,-481.72 -481.89,-1262.91 0,-1744.71 481.72,-481.72 1262.91,-481.72 1744.71,0l4361.82 4361.82 4361.65 -4361.82c481.72,-481.72 1262.91,-481.72 1744.71,0 481.89,481.72 481.89,1262.91 0,1744.71l-4361.65 4361.82 4361.82 4361.73c481.8,481.81 481.8,1262.99 0,1744.71z"/>
   </g>
   <g>
   </g>
   <g>
   </g>
   <g>
   </g>
   <g>
   </g>
   <g>
   </g>
   <g>
   </g>
   <g>
   </g>
   <g>
   </g>
   <g>
   </g>
   <g>
   </g>
   <g>
   </g>
   <g>
   </g>
   <g>
   </g>
   <g>
   </g>
   <g>
   </g>
  </g>
 </g>
</svg>
