<?xml version="1.0" encoding="UTF-8"?>
<!DOCTYPE svg PUBLIC "-//W3C//DTD SVG 1.1//EN" "http://www.w3.org/Graphics/SVG/1.1/DTD/svg11.dtd">
<!-- Creator: CorelDRAW 2019 (64 Bit) -->
<svg xmlns="http://www.w3.org/2000/svg" xml:space="preserve" width="209.498mm" height="210mm" version="1.1" style="shape-rendering:geometricPrecision; text-rendering:geometricPrecision; image-rendering:optimizeQuality; fill-rule:evenodd; clip-rule:evenodd"
viewBox="0 0 30182.36 30254.65"
 xmlns:xlink="http://www.w3.org/1999/xlink"
 xmlns:xodm="http://www.corel.com/coreldraw/odm/2003">
 <defs>
  <style type="text/css">
   <![CDATA[
    .fil0 {fill:#848688;fill-rule:nonzero}
   ]]>
  </style>
 </defs>
 <g id="Camada_x0020_1">
  <metadata id="CorelCorpID_0Corel-Layer"/>
  <g id="edit-svgrepo-com.svg">
   <g>
    <path class="fil0" d="M29117.93 5025.5l-3924.49 -3924.49c-808.35,-1011.97 -3282.75,-1863.51 -5146.26,0l-17950.22 17888.51 0 0c-271.5,271.5 -401.09,623.23 -382.58,962.62l-1672.23 8749.88c-259.17,999.63 734.29,1641.37 1413.07,1542.64l9070.75 -1801.81c259.17,0 450.45,-129.58 641.74,-320.87l17950.22 -17882.33c1419.23,-1419.23 1419.23,-3794.91 0,-5214.14zm-7268.95 -2184.39c388.74,-450.45 1160.06,-450.45 1610.53,0l1067.51 1049 -17876.16 17876.16 -1857.35 -1875.86 17055.47 -17049.3zm-18073.61 19622.45l3973.85 3973.85 -4942.63 974.95 968.78 -4948.8zm23608.63 -14093.6l-17080.16 17080.16 -1857.35 -1875.86 17894.68 -17894.68 1036.65 1018.14c567.71,604.72 302.37,1369.87 6.18,1672.23z"/>
   </g>
   <g>
   </g>
   <g>
   </g>
   <g>
   </g>
   <g>
   </g>
   <g>
   </g>
   <g>
   </g>
   <g>
   </g>
   <g>
   </g>
   <g>
   </g>
   <g>
   </g>
   <g>
   </g>
   <g>
   </g>
   <g>
   </g>
   <g>
   </g>
   <g>
   </g>
  </g>
 </g>
</svg>
