<?xml version="1.0" encoding="UTF-8"?>
<!DOCTYPE svg PUBLIC "-//W3C//DTD SVG 1.1//EN" "http://www.w3.org/Graphics/SVG/1.1/DTD/svg11.dtd">
<!-- Creator: CorelDRAW 2019 (64 Bit) -->
<svg xmlns="http://www.w3.org/2000/svg" xml:space="preserve" width="210mm" height="210mm" version="1.1" style="shape-rendering:geometricPrecision; text-rendering:geometricPrecision; image-rendering:optimizeQuality; fill-rule:evenodd; clip-rule:evenodd"
viewBox="0 0 24457.61 24457.61"
 xmlns:xlink="http://www.w3.org/1999/xlink"
 xmlns:xodm="http://www.corel.com/coreldraw/odm/2003">
 <defs>
  <style type="text/css">
   <![CDATA[
    .fil0 {fill:#96989A;fill-rule:nonzero}
   ]]>
  </style>
 </defs>
 <g id="Camada_x0020_1">
  <metadata id="CorelCorpID_0Corel-Layer"/>
  <g id="facebook-svgrepo-com.svg">
   <g>
    <g>
     <path class="fil0" d="M18323.79 0l-12209.39 0c-3358.06,0 -6114.4,2756.34 -6114.4,6133.82l0 12209.39c0,3358.06 2756.34,6114.4 6114.4,6114.4l12209.39 0c3377.48,0 6133.82,-2756.34 6133.82,-6133.82l0 -12189.97c0,-3377.48 -2756.34,-6133.82 -6133.82,-6133.82zm-2814.56 12228.8l-2309.89 0 0 7570.21 -2911.62 0 0 -7570.21 -1552.86 0 0 -3105.73 1358.76 0 0 -1319.93c0,-1242.3 621.14,-3202.78 3241.6,-3202.78l2387.53 0 0 2581.64 -1688.74 0c-271.75,0 -640.56,174.7 -640.56,776.44l0 1164.65 2387.53 -0.01 -271.75 3105.73z"/>
    </g>
   </g>
   <g>
   </g>
   <g>
   </g>
   <g>
   </g>
   <g>
   </g>
   <g>
   </g>
   <g>
   </g>
   <g>
   </g>
   <g>
   </g>
   <g>
   </g>
   <g>
   </g>
   <g>
   </g>
   <g>
   </g>
   <g>
   </g>
   <g>
   </g>
   <g>
   </g>
  </g>
 </g>
</svg>
