<?xml version="1.0" encoding="UTF-8"?>
<!DOCTYPE svg PUBLIC "-//W3C//DTD SVG 1.1//EN" "http://www.w3.org/Graphics/SVG/1.1/DTD/svg11.dtd">
<!-- Creator: CorelDRAW 2019 (64 Bit) -->
<svg xmlns="http://www.w3.org/2000/svg" xml:space="preserve" width="5.2916mm" height="5.2917mm" version="1.1" style="shape-rendering:geometricPrecision; text-rendering:geometricPrecision; image-rendering:optimizeQuality; fill-rule:evenodd; clip-rule:evenodd"
viewBox="0 0 15.83 15.83"
 xmlns:xlink="http://www.w3.org/1999/xlink"
 xmlns:xodm="http://www.corel.com/coreldraw/odm/2003">
 <defs>
  <style type="text/css">
   <![CDATA[
    .fil0 {fill:#96989A;fill-rule:nonzero}
   ]]>
  </style>
 </defs>
 <g id="Camada_x0020_1">
  <metadata id="CorelCorpID_0Corel-Layer"/>
  <path id="github-svgrepo-com.svg" class="fil0" d="M15.83 8.11c0,1.77 -0.5,3.36 -1.51,4.77 -1.01,1.41 -2.31,2.39 -3.9,2.93 -0.19,0.04 -0.32,0.01 -0.41,-0.07 -0.09,-0.08 -0.13,-0.19 -0.13,-0.32l0 -2.23c0,-0.68 -0.18,-1.18 -0.54,-1.5 0.39,-0.04 0.74,-0.11 1.06,-0.19 0.31,-0.08 0.64,-0.22 0.97,-0.41 0.33,-0.19 0.61,-0.42 0.83,-0.7 0.22,-0.28 0.41,-0.65 0.55,-1.11 0.14,-0.46 0.21,-0.99 0.21,-1.59 0,-0.85 -0.27,-1.58 -0.81,-2.18 0.25,-0.64 0.23,-1.36 -0.08,-2.15 -0.19,-0.06 -0.47,-0.02 -0.83,0.12 -0.36,0.14 -0.68,0.3 -0.95,0.46l-0.39 0.25c-0.64,-0.18 -1.3,-0.27 -1.98,-0.27 -0.68,0 -1.34,0.09 -1.98,0.27 -0.11,-0.08 -0.26,-0.17 -0.44,-0.29 -0.18,-0.11 -0.47,-0.25 -0.86,-0.41 -0.39,-0.16 -0.69,-0.21 -0.89,-0.14 -0.3,0.8 -0.33,1.51 -0.07,2.15 -0.54,0.6 -0.81,1.32 -0.81,2.18 0,0.6 0.07,1.13 0.21,1.58 0.14,0.46 0.32,0.83 0.54,1.11 0.22,0.28 0.5,0.52 0.83,0.71 0.33,0.19 0.66,0.33 0.97,0.41 0.31,0.08 0.66,0.15 1.06,0.19 -0.27,0.25 -0.44,0.62 -0.5,1.09 -0.14,0.07 -0.3,0.12 -0.46,0.16 -0.16,0.04 -0.36,0.05 -0.59,0.05 -0.23,0 -0.45,-0.08 -0.68,-0.23 -0.22,-0.15 -0.41,-0.37 -0.57,-0.66 -0.13,-0.23 -0.3,-0.41 -0.5,-0.55 -0.2,-0.14 -0.37,-0.23 -0.51,-0.25l-0.21 -0.03c-0.14,0 -0.24,0.02 -0.3,0.05 -0.06,0.03 -0.07,0.07 -0.05,0.12 0.02,0.05 0.05,0.1 0.09,0.15 0.04,0.05 0.09,0.09 0.13,0.13l0.07 0.05c0.15,0.07 0.3,0.2 0.45,0.4 0.15,0.2 0.26,0.38 0.32,0.54l0.1 0.24c0.09,0.27 0.24,0.48 0.45,0.65 0.21,0.17 0.44,0.27 0.69,0.32 0.25,0.05 0.49,0.07 0.72,0.07 0.23,0 0.42,-0.01 0.57,-0.04l0.24 -0.04c0,0.27 0,0.58 0.01,0.94 0,0.36 0.01,0.55 0.01,0.57 0,0.13 -0.04,0.23 -0.13,0.32 -0.09,0.08 -0.23,0.11 -0.41,0.07 -1.59,-0.54 -2.89,-1.52 -3.9,-2.93 -1.01,-1.41 -1.51,-3 -1.51,-4.77 0,-1.47 0.35,-2.83 1.06,-4.07 0.71,-1.24 1.67,-2.23 2.88,-2.95 1.21,-0.73 2.54,-1.09 3.97,-1.09 1.44,0 2.76,0.36 3.97,1.09 1.21,0.73 2.17,1.71 2.88,2.95 0.71,1.24 1.06,2.6 1.06,4.07z"/>
 </g>
</svg>
