<?xml version="1.0" encoding="UTF-8"?>
<!DOCTYPE svg PUBLIC "-//W3C//DTD SVG 1.1//EN" "http://www.w3.org/Graphics/SVG/1.1/DTD/svg11.dtd">
<!-- Creator: CorelDRAW 2019 (64 Bit) -->
<svg xmlns="http://www.w3.org/2000/svg" xml:space="preserve" width="210mm" height="201.14mm" version="1.1" style="shape-rendering:geometricPrecision; text-rendering:geometricPrecision; image-rendering:optimizeQuality; fill-rule:evenodd; clip-rule:evenodd"
viewBox="0 0 22437.13 21490.47"
 xmlns:xlink="http://www.w3.org/1999/xlink"
 xmlns:xodm="http://www.corel.com/coreldraw/odm/2003">
 <defs>
  <style type="text/css">
   <![CDATA[
    .fil0 {fill:#BDBFC1;fill-rule:nonzero}
   ]]>
  </style>
 </defs>
 <g id="Camada_x0020_1">
  <metadata id="CorelCorpID_0Corel-Layer"/>
  <g id="home-svgrepo-com.svg">
   <path class="fil0" d="M22043.06 8346.26l-2807.41 -2288.06 0 -3659.26c0,-412.06 -335.3,-747.36 -747.36,-747.36l-1766.47 0c-412.06,0 -747.36,335.3 -747.36,747.36l0 1001.25 -3751.25 -3057.29c-271.36,-221.08 -629,-342.9 -1007.03,-342.9 -376.53,0 -732.48,121.07 -1002.34,341l-9819.77 8005.19c-446.17,363.56 -419.4,680.23 -363.76,836.63 55.51,156.07 234.26,417.91 807.42,417.91l1344.63 0.01 0 10527.32c0,751.3 609.57,1362.42 1358.82,1362.42l4246.34 0c742.94,0 1324.86,-598.49 1324.86,-1362.42l0 -4317.07c0,-370.01 340.05,-706.93 713.38,-706.93l2853.54 0c355.87,0 645.44,317.15 645.44,706.93l0 4317.07c0,738.52 637.83,1362.42 1392.8,1362.42l4178.4 0c749.26,0 1358.82,-611.2 1358.82,-1362.42l0 -10527.32 1344.63 0c573.15,0 751.84,-261.84 807.42,-417.91 55.64,-156.41 82.41,-473.08 -363.76,-836.56z"/>
   <g>
   </g>
   <g>
   </g>
   <g>
   </g>
   <g>
   </g>
   <g>
   </g>
   <g>
   </g>
   <g>
   </g>
   <g>
   </g>
   <g>
   </g>
   <g>
   </g>
   <g>
   </g>
   <g>
   </g>
   <g>
   </g>
   <g>
   </g>
   <g>
   </g>
  </g>
 </g>
</svg>
