<?xml version="1.0" encoding="UTF-8"?>
<!DOCTYPE svg PUBLIC "-//W3C//DTD SVG 1.1//EN" "http://www.w3.org/Graphics/SVG/1.1/DTD/svg11.dtd">
<!-- Creator: CorelDRAW 2019 (64 Bit) -->
<svg xmlns="http://www.w3.org/2000/svg" xml:space="preserve" width="210mm" height="210mm" version="1.1" style="shape-rendering:geometricPrecision; text-rendering:geometricPrecision; image-rendering:optimizeQuality; fill-rule:evenodd; clip-rule:evenodd"
viewBox="0 0 18783.73 18783.73"
 xmlns:xlink="http://www.w3.org/1999/xlink"
 xmlns:xodm="http://www.corel.com/coreldraw/odm/2003">
 <defs>
  <style type="text/css">
   <![CDATA[
    .fil0 {fill:#A9ABAE;fill-rule:nonzero}
   ]]>
  </style>
 </defs>
 <g id="Camada_x0020_1">
  <metadata id="CorelCorpID_0Corel-Layer"/>
  <g id="info-svgrepo-com.svg">
   <g id="XMLID_1055_">
    <g>
     <path class="fil0" d="M9391.87 0c-5186.97,0 -9391.87,4204.9 -9391.87,9391.87 0,5186.97 4204.9,9391.87 9391.87,9391.87 5186.97,0 9391.87,-4204.86 9391.87,-9391.87 0,-5187 -4204.9,-9391.87 -9391.87,-9391.87zm1565.29 15409.19c0,354.28 -287.23,641.51 -641.51,641.51l-1759.99 0c-354.28,0 -641.51,-287.23 -641.51,-641.51l0.01 -7141.2c0,-354.28 287.19,-641.51 641.51,-641.51l1759.99 0c354.28,0 641.51,287.19 641.51,641.51l-0.01 7141.2zm-1565.29 -8998.22c-879.53,0 -1592.53,-713 -1592.53,-1592.53 0,-879.53 713,-1592.53 1592.53,-1592.53 879.53,0 1592.53,713 1592.53,1592.53 0,879.53 -713,1592.53 -1592.53,1592.53z"/>
    </g>
   </g>
   <g>
   </g>
   <g>
   </g>
   <g>
   </g>
   <g>
   </g>
   <g>
   </g>
   <g>
   </g>
   <g>
   </g>
   <g>
   </g>
   <g>
   </g>
   <g>
   </g>
   <g>
   </g>
   <g>
   </g>
   <g>
   </g>
   <g>
   </g>
   <g>
   </g>
  </g>
 </g>
</svg>
