<?xml version="1.0" encoding="UTF-8"?>
<!DOCTYPE svg PUBLIC "-//W3C//DTD SVG 1.1//EN" "http://www.w3.org/Graphics/SVG/1.1/DTD/svg11.dtd">
<!-- Creator: CorelDRAW 2019 (64 Bit) -->
<svg xmlns="http://www.w3.org/2000/svg" xml:space="preserve" width="209.999mm" height="209.833mm" version="1.1" style="shape-rendering:geometricPrecision; text-rendering:geometricPrecision; image-rendering:optimizeQuality; fill-rule:evenodd; clip-rule:evenodd"
viewBox="0 0 24006.56 23987.52"
 xmlns:xlink="http://www.w3.org/1999/xlink"
 xmlns:xodm="http://www.corel.com/coreldraw/odm/2003">
 <defs>
  <style type="text/css">
   <![CDATA[
    .fil0 {fill:#96989A;fill-rule:nonzero}
   ]]>
  </style>
 </defs>
 <g id="Camada_x0020_1">
  <metadata id="CorelCorpID_0Corel-Layer"/>
  <g id="instagram-svgrepo-com.svg">
   <g>
    <g>
     <path class="fil0" d="M14125.98 10451.71c-475.95,-666.32 -1256.5,-1104.19 -2132.22,-1104.19 -875.74,0 -1656.29,437.87 -2132.22,1104.19 -304.61,437.87 -494.98,970.92 -494.98,1542.06 0,1446.86 1180.34,2627.21 2627.21,2627.21 1446.86,0 2627.21,-1180.34 2627.21,-2627.21 0,-571.13 -190.38,-1104.19 -494.98,-1542.06z"/>
    </g>
   </g>
   <g>
    <g>
     <path class="fil0" d="M15782.27 10470.75c190.37,380.76 304.61,989.95 304.61,1523.03 0,2246.45 -1827.61,4093.11 -4093.11,4093.11 -2265.48,0 -4093.11,-1827.61 -4093.11,-4093.11 0,-552.1 114.23,-1142.27 304.61,-1523.03l-2303.59 0 0 6111.12c0,799.58 704.4,1503.98 1503.98,1503.98l9176.18 0c799.58,0 1503.98,-704.4 1503.98,-1503.98l0.01 -6111.12 -2303.56 0 -0.01 0z"/>
    </g>
   </g>
   <g>
    <g>
     <polygon class="fil0" points="17400.47,6244.38 15192.08,6244.38 15192.08,8776.39 17705.08,8776.39 17705.08,6568.02 17705.08,6225.33 "/>
    </g>
   </g>
   <g>
    <g>
     <path class="fil0" d="M17971.61 0l-11955.69 0c-3312.56,0 -6015.91,2703.35 -6015.91,6015.91l0 11974.73c0,3293.53 2703.35,5996.88 6015.91,5996.88l11974.73 -0.01c3312.56,0 6015.91,-2703.35 6015.91,-6015.91l0 -11955.68c-19.03,-3312.56 -2722.39,-6015.91 -6034.95,-6015.91zm1446.86 10451.71l0 0 0 6130.15c0,1599.17 -1237.45,2836.62 -2836.62,2836.62l-9176.19 0.01c-1599.17,0 -2836.62,-1237.45 -2836.62,-2836.62l0 -6130.16 0 -3046.03c0,-1599.17 1237.45,-2836.62 2836.62,-2836.62l9176.18 -0.01c1599.17,0 2836.62,1237.45 2836.62,2836.62l0.01 3046.04z"/>
    </g>
   </g>
   <g>
   </g>
   <g>
   </g>
   <g>
   </g>
   <g>
   </g>
   <g>
   </g>
   <g>
   </g>
   <g>
   </g>
   <g>
   </g>
   <g>
   </g>
   <g>
   </g>
   <g>
   </g>
   <g>
   </g>
   <g>
   </g>
   <g>
   </g>
   <g>
   </g>
  </g>
 </g>
</svg>
