<?xml version="1.0" encoding="UTF-8"?>
<!DOCTYPE svg PUBLIC "-//W3C//DTD SVG 1.1//EN" "http://www.w3.org/Graphics/SVG/1.1/DTD/svg11.dtd">
<!-- Creator: CorelDRAW 2019 (64 Bit) -->
<svg xmlns="http://www.w3.org/2000/svg" xml:space="preserve" width="185.329mm" height="154.144mm" version="1.1" style="shape-rendering:geometricPrecision; text-rendering:geometricPrecision; image-rendering:optimizeQuality; fill-rule:evenodd; clip-rule:evenodd"
viewBox="0 0 16997.76 14137.57"
 xmlns:xlink="http://www.w3.org/1999/xlink"
 xmlns:xodm="http://www.corel.com/coreldraw/odm/2003"
 xmlns:serif="http://www.serif.com/">
 <defs>
  <style type="text/css">
   <![CDATA[
    .str0 {stroke:#A9ABAE;stroke-width:323.56;stroke-miterlimit:22.9256}
    .fil0 {fill:#A9ABAE}
   ]]>
  </style>
 </defs>
 <g id="Camada_x0020_1">
  <metadata id="CorelCorpID_0Corel-Layer"/>
  <g id="user-login-member-svgrepo-com.svg">
   <g id="ICON">
    <path class="fil0 str0" d="M16261.18 11661.13l-15524.39 0 0 -2299.95c0,-158.75 -128.75,-287.51 -287.5,-287.51 -158.74,0 -287.5,128.76 -287.5,287.51l0 3737.37c0,475.93 386.6,862.52 862.52,862.52l1149.92 0c158.74,0 287.5,-128.76 287.5,-287.51 0,-158.74 -128.76,-287.5 -287.5,-287.5l-1149.92 0c-158.78,0 -287.51,-128.72 -287.51,-287.5l0 -862.52 15524.39 0 0 862.52c0,158.79 -128.72,287.5 -287.5,287.5l-12649.54 0c-158.75,0 -287.5,128.76 -287.5,287.5 0,158.75 128.75,287.51 287.5,287.51l3624.04 0 -0.9 14.71 574.99 0 0.92 -14.71 1951.6 0 0.92 14.71 574.66 0 -0.89 -14.71 5923.98 0c475.93,0 862.52,-386.6 862.52,-862.52l0 -8624.66c0,-475.93 -386.6,-862.52 -862.52,-862.52l-2874.85 0c-158.75,0 -287.5,128.76 -287.5,287.51 0,158.74 128.75,287.5 287.5,287.5l2874.85 0c158.78,0 287.51,128.72 287.51,287.5l0 7187.24 0.21 0zm-1724.93 -4024.88c0,-476.35 -386.06,-862.52 -862.52,-862.52l-10349.59 0c-476.35,0 -862.52,386.06 -862.52,862.52l0 2587.45c0,476.36 386.06,862.52 862.52,862.52l10349.59 0c476.36,0 862.52,-386.06 862.52,-862.52l0 -2587.45zm-575.02 0l0 2587.45c0,158.75 -128.75,287.5 -287.5,287.5l-10349.59 0c-158.75,0 -287.5,-128.75 -287.5,-287.5l0 -2587.45c0,-158.75 128.75,-287.5 287.5,-287.5l10349.59 0c158.75,0 287.5,128.75 287.5,287.5zm-2077.95 795.81l-221.99 -128.22c-137.45,-79.32 -313.36,-32.17 -392.69,105.18 -79.32,137.46 -32.16,313.37 105.18,392.69l221.99 128.22 -221.99 128.21c-137.45,79.32 -184.61,255.35 -105.18,392.69 79.33,137.46 255.35,184.61 392.69,105.18l221.99 -128.21 0 220.79c0,158.74 128.76,287.5 287.5,287.5 158.75,0 287.5,-128.76 287.5,-287.5l0 -220.79 221.99 128.21c137.45,79.33 313.37,32.17 392.69,-105.18 79.32,-137.45 32.17,-313.37 -105.18,-392.69l-221.98 -128.21 221.98 -128.22c137.46,-79.32 184.61,-255.34 105.18,-392.69 -79.32,-137.45 -255.35,-184.61 -392.69,-105.18l-221.99 128.22 0 -220.8c0,-158.74 -128.75,-287.5 -287.5,-287.5 -158.74,0 -287.5,128.76 -287.5,287.5l0 220.8zm-3671.86 0l-221.98 -128.22c-137.46,-79.32 -313.37,-32.17 -392.69,105.18 -79.33,137.46 -32.17,313.37 105.18,392.69l221.98 128.22 -221.98 128.21c-137.46,79.32 -184.62,255.35 -105.18,392.69 79.32,137.46 255.34,184.61 392.69,105.18l221.98 -128.21 0 220.79c0,158.74 128.76,287.5 287.51,287.5 158.74,0 287.5,-128.76 287.5,-287.5l0 -220.79 221.98 128.21c137.46,79.33 313.37,32.17 392.69,-105.18 79.33,-137.45 32.17,-313.37 -105.18,-392.69l-221.98 -128.21 221.98 -128.22c137.46,-79.32 184.62,-255.34 105.18,-392.69 -79.32,-137.45 -255.34,-184.61 -392.69,-105.18l-221.98 128.22 0 -220.8c0,-158.74 -128.76,-287.5 -287.5,-287.5 -158.75,0 -287.51,128.76 -287.51,287.5l0 220.8zm-3659.13 0l-221.99 -128.22c-137.45,-79.32 -313.36,-32.17 -392.69,105.18 -79.32,137.46 -32.17,313.37 105.18,392.69l221.99 128.22 -221.99 128.21c-137.45,79.32 -184.61,255.35 -105.18,392.69 79.33,137.46 255.35,184.61 392.69,105.18l221.99 -128.21 0 220.79c0,158.74 128.76,287.5 287.5,287.5 158.75,0 287.5,-128.76 287.5,-287.5l0 -220.79 221.99 128.21c137.45,79.33 313.37,32.17 392.69,-105.18 79.32,-137.45 32.17,-313.37 -105.18,-392.69l-221.98 -128.21 221.98 -128.22c137.45,-79.32 184.61,-255.34 105.18,-392.69 -79.32,-137.45 -255.35,-184.61 -392.69,-105.18l-221.99 128.22 0 -220.8c0,-158.74 -128.75,-287.5 -287.5,-287.5 -158.74,0 -287.5,128.76 -287.5,287.5l0 220.8zm-653.14 -4820.58l-2874.85 0c-475.94,0 -862.52,386.59 -862.52,862.52l0 3881.13c0,158.74 128.76,287.5 287.5,287.5 158.75,0 287.5,-128.76 287.5,-287.5l0 -3881.13c0,-158.79 128.73,-287.5 287.51,-287.5l2874.85 0c158.75,0 287.51,-128.76 287.51,-287.51 0,-158.74 -128.76,-287.5 -287.51,-287.5zm2902.99 -650.31c-715.04,498.72 -1143.62,1315.82 -1143.62,2190.64l0 184.61c0,476.35 386.06,862.52 862.52,862.52l3955.88 0c476.35,0 862.51,-386.06 862.51,-862.52l0 -184.61c0,-874.96 -428.46,-1691.85 -1143.61,-2190.64 376.6,-721.59 262.18,-1633.77 -343.58,-2239.21 -746.91,-746.91 -1959.52,-746.91 -2706.44,0 -605.76,605.44 -720.18,1517.62 -343.57,2239.21l-0.11 0zm3962.19 2190.64l0 184.61c0,158.74 -128.76,287.5 -287.5,287.5l-3955.88 0c-158.74,0 -287.5,-128.76 -287.5,-287.5l0 -184.61c0,-555.46 220.79,-1088.42 613.81,-1481.44 392.69,-392.69 925.76,-613.48 1481.11,-613.48l340.97 0c555.46,0 1088.41,220.79 1481.1,613.48 393.02,393.02 613.81,925.98 613.81,1481.44l0.11 0zm-1073.43 -2466.63c257.63,-503.41 175.7,-1135.89 -245.23,-1556.73 -522.65,-522.64 -1370.72,-522.64 -1893.36,0 -420.93,420.93 -502.86,1053.32 -245.24,1556.73 320.87,-132.78 667.6,-203.29 1021.49,-203.29l340.97 0c353.9,0 700.62,70.4 1021.49,203.29l-0.11 0z"/>
   </g>
  </g>
 </g>
</svg>
