<?xml version="1.0" encoding="UTF-8"?>
<!DOCTYPE svg PUBLIC "-//W3C//DTD SVG 1.1//EN" "http://www.w3.org/Graphics/SVG/1.1/DTD/svg11.dtd">
<!-- Creator: CorelDRAW 2019 (64 Bit) -->
<svg xmlns="http://www.w3.org/2000/svg" xml:space="preserve" width="210mm" height="209.99mm" version="1.1" style="shape-rendering:geometricPrecision; text-rendering:geometricPrecision; image-rendering:optimizeQuality; fill-rule:evenodd; clip-rule:evenodd"
viewBox="0 0 25450.75 25449.5"
 xmlns:xlink="http://www.w3.org/1999/xlink"
 xmlns:xodm="http://www.corel.com/coreldraw/odm/2003">
 <defs>
  <style type="text/css">
   <![CDATA[
    .fil0 {fill:#D2D3D5;fill-rule:nonzero}
   ]]>
  </style>
 </defs>
 <g id="Camada_x0020_1">
  <metadata id="CorelCorpID_0Corel-Layer"/>
  <g id="logout-svgrepo-com.svg">
   <g>
    <g>
     <g>
      <path class="fil0" d="M8830.1 8938.09c-166.46,-1468.67 -1329.74,-2575.71 -2704.01,-2575.71l-2707.2 0c-1374.27,0 -2537.55,1107.06 -2704.01,2575.71l-703.05 6158.78c-58.31,515.35 100.75,1026.48 435.83,1402.91 288.44,324.48 673.37,512.17 1089.01,535.48l585.34 7923.29c22.26,276.76 252.36,490.94 530.21,490.94l4241.56 0.01c277.81,0 507.95,-214.19 529.12,-490.94l585.34 -7923.29c416.74,-23.32 800.62,-212.1 1089.01,-535.48 335.07,-375.37 494.13,-887.55 435.83,-1402.91l-703 -6158.79z"/>
      <path class="fil0" d="M4773.03 5301.99c1464.39,0 2650.97,-1186.59 2650.97,-2650.97 0,-1464.39 -1187.63,-2650.97 -2650.97,-2650.97 -1464.39,0 -2650.97,1186.59 -2650.97,2650.97 -0.05,1464.39 1186.54,2650.97 2650.97,2650.97z"/>
      <path class="fil0" d="M17623.98 1016.94c231.18,-98.62 360.52,-347.79 310.72,-593.84 -50.9,-246 -268.26,-423.1 -519.58,-423.1l-5219.33 0c-876.96,0 -1590.6,713.63 -1590.6,1590.6l0 19087.12c0,876.96 713.63,1590.6 1590.6,1590.6l1060.37 -0.01c292.67,0 530.21,-237.54 530.21,-530.21l0.01 -16866.6c0,-1341.41 797.43,-2550.27 2030.64,-3079.39l1806.95 -775.16z"/>
      <path class="fil0" d="M23161.34 0c-312.8,0 -616.1,62.58 -903.45,185.55l-6024.13 2582.09c-841.97,360.52 -1386.99,1186.59 -1386.99,2103.81l0 18288.65c0,1261.88 1027.52,2289.42 2289.42,2289.42 312.8,0 616.1,-62.58 903.45,-185.55l6024.13 -2582.07c841.97,-360.52 1386.99,-1186.59 1386.99,-2103.81l0 -18288.66c0,-1261.88 -1027.52,-2289.42 -2289.42,-2289.42zm-5133.39 14315.34c0,292.67 -237.54,530.21 -530.21,530.21 -292.67,0 -530.21,-237.54 -530.21,-530.21l0 -2120.81c0,-292.67 237.54,-530.21 530.21,-530.21 292.67,0 530.21,237.54 530.21,530.21l0 2120.81z"/>
     </g>
    </g>
   </g>
   <g>
   </g>
   <g>
   </g>
   <g>
   </g>
   <g>
   </g>
   <g>
   </g>
   <g>
   </g>
   <g>
   </g>
   <g>
   </g>
   <g>
   </g>
   <g>
   </g>
   <g>
   </g>
   <g>
   </g>
   <g>
   </g>
   <g>
   </g>
   <g>
   </g>
  </g>
 </g>
</svg>
