<?xml version="1.0" encoding="UTF-8"?>
<!DOCTYPE svg PUBLIC "-//W3C//DTD SVG 1.1//EN" "http://www.w3.org/Graphics/SVG/1.1/DTD/svg11.dtd">
<!-- Creator: CorelDRAW 2019 (64 Bit) -->
<svg xmlns="http://www.w3.org/2000/svg" xml:space="preserve" width="56mm" height="210mm" version="1.1" style="shape-rendering:geometricPrecision; text-rendering:geometricPrecision; image-rendering:optimizeQuality; fill-rule:evenodd; clip-rule:evenodd"
viewBox="0 0 2060.3 7726.14"
 xmlns:xlink="http://www.w3.org/1999/xlink"
 xmlns:xodm="http://www.corel.com/coreldraw/odm/2003">
 <defs>
  <style type="text/css">
   <![CDATA[
    .fil0 {fill:#848688;fill-rule:nonzero}
   ]]>
  </style>
 </defs>
 <g id="Camada_x0020_1">
  <metadata id="CorelCorpID_0Corel-Layer"/>
  <g id="more.svg">
   <g>
    <path class="fil0" d="M1030.15 2060.3c568,0 1030.15,-462.15 1030.15,-1030.15 0,-568 -462.15,-1030.15 -1030.15,-1030.15 -568,0 -1030.15,462.15 -1030.15,1030.15 0,568 462.15,1030.15 1030.15,1030.15z"/>
    <path class="fil0" d="M1030.15 5665.83c-568,0 -1030.15,462.15 -1030.15,1030.15 0,568 462.15,1030.15 1030.15,1030.15 568,0 1030.15,-462.15 1030.15,-1030.15 0,-568 -462.15,-1030.15 -1030.15,-1030.15z"/>
    <path class="fil0" d="M1030.15 2832.92c-568,0 -1030.15,462.15 -1030.15,1030.15 0,568 462.15,1030.15 1030.15,1030.15 568,0 1030.15,-462.15 1030.15,-1030.15 0,-568 -462.15,-1030.15 -1030.15,-1030.15z"/>
   </g>
   <g>
   </g>
   <g>
   </g>
   <g>
   </g>
   <g>
   </g>
   <g>
   </g>
   <g>
   </g>
   <g>
   </g>
   <g>
   </g>
   <g>
   </g>
   <g>
   </g>
   <g>
   </g>
   <g>
   </g>
   <g>
   </g>
   <g>
   </g>
   <g>
   </g>
  </g>
 </g>
</svg>
