<?xml version="1.0" encoding="UTF-8"?>
<!DOCTYPE svg PUBLIC "-//W3C//DTD SVG 1.1//EN" "http://www.w3.org/Graphics/SVG/1.1/DTD/svg11.dtd">
<!-- Creator: CorelDRAW 2019 (64 Bit) -->
<svg xmlns="http://www.w3.org/2000/svg" xml:space="preserve" width="181.935mm" height="186.375mm" version="1.1" style="shape-rendering:geometricPrecision; text-rendering:geometricPrecision; image-rendering:optimizeQuality; fill-rule:evenodd; clip-rule:evenodd"
viewBox="0 0 18534.68 18986.97"
 xmlns:xlink="http://www.w3.org/1999/xlink"
 xmlns:xodm="http://www.corel.com/coreldraw/odm/2003">
 <defs>
  <style type="text/css">
   <![CDATA[
    .fil0 {fill:#4B4B4D;fill-rule:nonzero}
   ]]>
  </style>
 </defs>
 <g id="Camada_x0020_1">
  <metadata id="CorelCorpID_0Corel-Layer"/>
  <g id="security-protection-password-locked-padlock-svgrepo-com.svg">
   <path class="fil0" d="M12610.73 5482.15l0 -2139.38c0,-1871.95 -1470.82,-3342.78 -3342.78,-3342.78 -1871.95,0 -3342.78,1470.82 -3342.78,3342.78l0 2139.38c-802.27,267.42 -1337.11,1002.83 -1337.11,1871.95l0 2674.22c0,1136.55 869.13,2005.67 2005.67,2005.67l5348.44 0c1136.55,0 2005.67,-869.13 2005.67,-2005.67l0 -2674.22c0,-869.13 -534.84,-1604.53 -1337.11,-1871.95zm-2674.22 3877.62c0,401.13 -267.42,668.56 -668.56,668.56 -401.13,0 -668.56,-267.42 -668.56,-668.56l0 -1337.11c0,-401.13 267.42,-668.56 668.56,-668.56 401.13,0 668.56,267.42 668.56,668.56l0 1337.11zm1337.11 -4011.33l-4011.33 0 0 -2005.67c0,-1136.55 869.13,-2005.67 2005.67,-2005.67 1136.54,0 2005.67,869.13 2005.67,2005.67l0 2005.67z"/>
   <path class="fil0" d="M10939.34 15443.63l-1002.84 334.27 0 -1069.69c0,-401.13 -267.42,-668.56 -668.56,-668.56 -401.13,0 -668.56,267.42 -668.56,668.56l0 1069.69 -1002.84 -334.28c-334.28,-133.71 -735.42,66.86 -869.13,401.13 -133.71,334.28 66.86,735.42 401.13,869.13l1002.84 334.28 -668.56 869.13c-200.57,267.42 -133.71,735.42 133.71,935.98 133.71,66.86 267.42,133.71 401.13,133.71 200.57,0 401.13,-66.86 534.84,-267.42l668.56 -869.13 668.56 869.13c133.71,200.57 334.28,267.42 534.84,267.42 133.71,0 267.42,-66.86 401.13,-133.71 267.42,-200.57 334.28,-668.56 133.71,-935.98l-668.56 -869.13 1002.84 -334.28c334.28,-133.71 534.84,-467.99 401.13,-869.13 0,-334.27 -334.27,-467.98 -735.41,-401.12z"/>
   <path class="fil0" d="M18494.01 15911.61c-133.71,-334.28 -467.99,-534.84 -869.13,-401.13l-1002.83 267.42 0 -1069.69c0,-401.13 -267.42,-668.56 -668.56,-668.56 -401.13,0 -668.56,267.42 -668.56,668.56l0 1069.69 -1002.84 -334.28c-334.28,-133.71 -735.42,66.86 -869.13,401.13 -133.71,334.28 66.86,735.42 401.13,869.13l1002.84 334.28 -668.56 869.13c-200.57,267.42 -133.71,735.42 133.71,935.98 133.71,66.86 267.42,133.71 401.13,133.71 200.57,0 401.13,-66.86 534.84,-267.42l668.56 -869.13 668.56 869.13c133.71,200.57 334.28,267.42 534.84,267.42 133.71,0 267.42,-66.86 401.13,-133.71 267.42,-200.57 334.28,-668.56 133.71,-935.98l-668.56 -869.13 1002.84 -334.28c467.99,-66.85 668.56,-467.98 534.84,-802.27z"/>
   <path class="fil0" d="M4253.78 15443.63l-1002.83 334.27 0 -1069.69c0,-401.13 -267.42,-668.56 -668.56,-668.56 -401.13,0 -668.56,267.42 -668.56,668.56l0 1069.69 -1002.84 -334.28c-334.28,-133.71 -735.42,66.86 -869.13,401.13 -133.7,401.14 66.86,802.28 401.14,869.13l1002.84 334.28 -668.56 869.13c-200.57,267.42 -133.71,735.42 133.71,935.98 133.71,66.86 267.42,133.71 401.13,133.71 200.57,0 401.13,-66.86 534.84,-267.42l668.56 -869.13 735.41 869.12c133.71,200.57 334.28,267.42 534.84,267.42 133.71,0 267.42,-66.86 401.13,-133.71 267.42,-200.57 334.28,-668.56 133.71,-935.98l-668.56 -869.13 1069.69 -334.27c334.28,-133.71 534.84,-467.99 401.13,-869.13 -133.71,-334.27 -467.99,-467.98 -869.13,-401.12z"/>
  </g>
 </g>
</svg>
