<?xml version="1.0" encoding="UTF-8"?>
<!DOCTYPE svg PUBLIC "-//W3C//DTD SVG 1.1//EN" "http://www.w3.org/Graphics/SVG/1.1/DTD/svg11.dtd">
<!-- Creator: CorelDRAW 2019 (64 Bit) -->
<svg xmlns="http://www.w3.org/2000/svg" xml:space="preserve" width="120.19mm" height="155.841mm" version="1.1" style="shape-rendering:geometricPrecision; text-rendering:geometricPrecision; image-rendering:optimizeQuality; fill-rule:evenodd; clip-rule:evenodd"
viewBox="0 0 8369.44 10851.98"
 xmlns:xlink="http://www.w3.org/1999/xlink"
 xmlns:xodm="http://www.corel.com/coreldraw/odm/2003">
 <defs>
  <style type="text/css">
   <![CDATA[
    .fil0 {fill:#848688;fill-rule:nonzero}
   ]]>
  </style>
 </defs>
 <g id="Camada_x0020_1">
  <metadata id="CorelCorpID_0Corel-Layer"/>
  <g id="recycle-bin-svgrepo-com.svg">
   <g>
    <g>
     <path class="fil0" d="M7081.26 2708.11l-5793.09 0c-300.08,0 -588.7,126.69 -791.82,347.58 -203.13,220.87 -305.22,519.07 -280.14,818.09l501.89 5983.18c22.6,269.53 144.7,518.79 343.8,701.89 199.07,183.1 457.7,283.92 728.15,283.92l4789.34 -0.01c270.47,0 529.05,-100.84 728.15,-283.92 199.09,-183.08 321.21,-432.36 343.8,-701.91l501.88 -5983.18c25.08,-299.01 -77.02,-597.2 -280.14,-818.07 -203.1,-220.89 -491.73,-347.58 -791.81,-347.58zm285.43 1099.67l-501.88 5983.19c-12.46,148.41 -136.53,262.49 -285.43,262.49l-4789.31 0.01c-148.92,0 -272.99,-114.08 -285.43,-262.49l-501.89 -5983.19c-14.02,-167.05 117.79,-310.38 285.43,-310.38l5793.09 0c167.64,0 299.43,143.32 285.43,310.37z"/>
     <path class="fil0" d="M6579.39 10851.98l-4789.34 0c-272.81,0 -533.61,-101.7 -734.39,-286.35 -200.81,-184.65 -323.96,-436.07 -346.75,-707.9l-501.89 -5983.17c-25.3,-301.6 77.68,-602.34 282.54,-825.11 204.86,-222.78 495.95,-350.56 798.6,-350.56l5793.09 0c302.69,0 593.76,127.77 798.6,350.56 204.86,222.75 307.84,523.49 282.54,825.08l-501.88 5983.18c-22.79,271.85 -145.94,523.25 -346.73,707.92 -200.81,184.66 -461.64,286.36 -734.39,286.36zm-5291.22 -8134.65c-297.52,0 -583.66,125.6 -785.04,344.61 -201.38,218.97 -302.62,514.61 -277.75,811.1l501.89 5983.18c22.4,267.22 143.47,514.35 340.85,695.88 197.36,181.53 453.76,281.49 721.92,281.49l4789.33 -0.01c268.14,0 524.52,-99.97 721.92,-281.49 197.42,-181.53 318.46,-428.66 340.87,-695.91l501.88 -5983.18c24.87,-296.46 -76.37,-592.1 -277.75,-811.05 -201.36,-218.99 -487.49,-344.61 -785.02,-344.61l-5793.12 0.01 0 -0.02zm5291.22 7345.36l-4789.32 0c-152.46,0 -281.88,-119 -294.61,-270.93l-501.89 -5983.19c-6.89,-82.19 21.17,-164.14 77,-224.83 55.83,-60.71 135.14,-95.53 217.61,-95.53l5793.09 0c82.48,0 161.78,34.8 217.61,95.51 55.83,60.69 83.9,142.66 77.02,224.85l-501.88 5983.19c-12.77,151.92 -142.18,270.93 -294.62,270.93zm-5291.22 -6556.06c-77.33,0 -151.71,32.64 -204.05,89.56 -52.34,56.91 -78.65,133.76 -72.18,210.81l501.89 5983.19c11.94,142.46 133.28,254.05 276.26,254.05l4789.31 0c142.95,0 264.31,-111.6 276.26,-254.05l501.88 -5983.19c6.47,-77.07 -19.86,-153.91 -72.23,-210.83 -52.34,-56.91 -126.7,-89.54 -204.03,-89.54l-5793.11 0z"/>
    </g>
    <g>
     <path class="fil0" d="M403.86 2281.57l7561.69 0c217.96,0 394.65,-176.69 394.65,-394.65 0,-217.96 -176.69,-394.65 -394.65,-394.65l-1433.39 0 0 -17.8 0 -389.55c0,-593.15 -482.55,-1075.72 -1075.7,-1075.72l-2543.47 0.01c-593.15,0 -1075.72,482.57 -1075.72,1075.72l0 389.55 0 17.8 -1433.4 -0.01c-217.96,0 -394.65,176.69 -394.65,394.65 0,217.96 176.69,394.65 394.65,394.65zm2222.68 -1196.64c0,-158.19 128.23,-286.42 286.42,-286.42l2543.49 0c158.16,0 286.4,128.23 286.4,286.42l0 389.55 -3116.32 0 0 -389.55z"/>
     <path class="fil0" d="M7965.55 2290.78l-7561.69 0c-222.69,0 -403.86,-181.16 -403.86,-403.86 0,-222.68 181.16,-403.86 403.86,-403.86l1424.18 0.01 0 -398.13c0,-598.21 486.69,-1084.93 1084.95,-1084.93l2543.49 0c598.22,0 1084.91,486.71 1084.91,1084.94l0 398.13 1424.18 -0.01c222.69,0 403.86,181.16 403.86,403.86 -0.02,222.69 -181.18,403.86 -403.88,403.86zm-7561.69 -789.29c-212.53,0 -385.44,172.91 -385.44,385.44 0,212.54 172.91,385.44 385.44,385.44l7561.69 0c212.53,0 385.44,-172.91 385.44,-385.44 0,-212.53 -172.91,-385.44 -385.44,-385.44l-1442.6 0 0 -416.56c0,-588.06 -478.42,-1066.5 -1066.49,-1066.5l-2543.47 0c-588.07,0 -1066.51,478.44 -1066.51,1066.51l0 416.56 -1442.62 -0.01zm5348.22 -17.82l-3134.75 0 0 -398.74c0,-163.02 132.62,-295.64 295.64,-295.64l2543.49 0c163.02,0 295.61,132.62 295.61,295.64l0.01 398.74zm-3116.32 -18.42l3097.9 0 0 -380.32c0,-152.85 -124.35,-277.21 -277.2,-277.21l-2543.47 0c-152.86,0 -277.21,124.36 -277.21,277.21l0 380.32 -0.02 0z"/>
    </g>
    <g>
     <path class="fil0" d="M2791.18 5015.7c-14.37,-217.5 -202.48,-382.1 -419.8,-367.76 -217.5,14.37 -382.16,202.34 -367.76,419.82l229.16 3467.42c13.78,208.62 187.3,368.63 393.4,368.63 8.75,0 17.56,-0.29 26.42,-0.86 217.48,-14.37 382.14,-202.32 367.76,-419.82l-229.18 -3467.42z"/>
     <path class="fil0" d="M2626.16 8913.02c-211.77,0 -388.61,-165.69 -402.59,-377.23l-229.16 -3467.42c-7.11,-107.66 28.12,-211.6 99.2,-292.76 71.08,-81.16 169.52,-129.74 277.15,-136.87 223.65,-14.55 415.03,155.91 429.6,376.35l229.16 3467.42c14.69,222.21 -154.14,414.93 -376.35,429.62 -9.05,0.61 -18.06,0.9 -27.01,0.9zm-228.44 -4256.74c-8.53,0 -17.1,0.29 -25.72,0.85 -102.73,6.8 -196.66,53.17 -264.52,130.61 -67.84,77.46 -101.47,176.67 -94.66,279.4l229.16 3467.42c13.89,210.44 196.98,373.02 410.01,359.18 212.07,-14.02 373.18,-197.95 359.18,-410.01l-229.16 -3467.42c-13.34,-201.88 -182.14,-360.03 -384.3,-360.03z"/>
    </g>
    <g>
     <path class="fil0" d="M4184.71 4647.08c-217.96,0 -394.65,176.69 -394.65,394.65l0 3467.42c0,217.96 176.69,394.65 394.65,394.65 217.98,0 394.65,-176.69 394.65,-394.65l0 -3467.42c0.01,-217.96 -176.67,-394.64 -394.65,-394.64z"/>
     <path class="fil0" d="M4184.71 8913.01c-222.69,0 -403.86,-181.16 -403.86,-403.86l0 -3467.42c0,-222.69 181.16,-403.86 403.86,-403.86 222.69,0 403.86,181.16 403.86,403.86l0 3467.42c0.01,222.69 -181.15,403.86 -403.86,403.86zm0 -4256.71c-212.53,0 -385.44,172.91 -385.44,385.44l0 3467.42c0,212.53 172.91,385.44 385.44,385.44 212.54,0 385.44,-172.91 385.44,-385.44l0 -3467.42c0.01,-212.54 -172.9,-385.43 -385.44,-385.43z"/>
    </g>
    <g>
     <path class="fil0" d="M5998.05 4647.93c-217.35,-14.33 -405.44,150.27 -419.8,367.76l-229.17 3467.44c-14.35,217.5 150.27,405.44 367.76,419.82 8.88,0.57 17.67,0.86 26.42,0.86 206.09,0 379.62,-160.04 393.43,-368.63l229.13 -3467.42c14.37,-217.49 -150.28,-405.46 -367.78,-419.83z"/>
     <path class="fil0" d="M5743.27 8913.02c-8.93,0 -17.92,-0.29 -27.01,-0.88 -222.21,-14.69 -391.04,-207.42 -376.37,-429.62l229.16 -3467.42c14.55,-220.44 206.11,-391 429.6,-376.35 107.66,7.11 206.08,55.72 277.15,136.85 71.08,81.14 106.33,185.11 99.2,292.76l-229.12 3467.42c-14,211.53 -190.86,377.23 -402.61,377.23zm228.42 -4256.74c-202.15,0 -370.94,158.13 -384.26,360.03l-229.16 3467.43c-14,212.07 147.12,395.99 359.18,410.01 213.81,13.82 396.11,-148.75 410.03,-359.18l229.13 -3467.42c6.8,-102.73 -26.81,-201.95 -94.66,-279.4 -67.86,-77.46 -161.78,-123.83 -264.52,-130.61 -8.63,-0.56 -17.21,-0.86 -25.74,-0.86z"/>
    </g>
   </g>
   <g>
   </g>
   <g>
   </g>
   <g>
   </g>
   <g>
   </g>
   <g>
   </g>
   <g>
   </g>
   <g>
   </g>
   <g>
   </g>
   <g>
   </g>
   <g>
   </g>
   <g>
   </g>
   <g>
   </g>
   <g>
   </g>
   <g>
   </g>
   <g>
   </g>
  </g>
 </g>
</svg>
