<?xml version="1.0" encoding="UTF-8"?>
<!DOCTYPE svg PUBLIC "-//W3C//DTD SVG 1.1//EN" "http://www.w3.org/Graphics/SVG/1.1/DTD/svg11.dtd">
<!-- Creator: CorelDRAW 2019 (64 Bit) -->
<svg xmlns="http://www.w3.org/2000/svg" xml:space="preserve" width="210mm" height="210mm" version="1.1" style="shape-rendering:geometricPrecision; text-rendering:geometricPrecision; image-rendering:optimizeQuality; fill-rule:evenodd; clip-rule:evenodd"
viewBox="0 0 28034.17 28034.17"
 xmlns:xlink="http://www.w3.org/1999/xlink"
 xmlns:xodm="http://www.corel.com/coreldraw/odm/2003">
 <defs>
  <style type="text/css">
   <![CDATA[
    .fil0 {fill:#A9ABAE;fill-rule:nonzero}
   ]]>
  </style>
 </defs>
 <g id="Camada_x0020_1">
  <metadata id="CorelCorpID_0Corel-Layer"/>
  <g id="register.svg">
   <g>
    <g>
     <path class="fil0" d="M14017.09 0c-7728.67,0 -14017.09,6288.41 -14017.09,14017.09 0,7728.67 6288.41,14017.09 14017.09,14017.09 7728.67,0 14017.09,-6288.41 14017.09,-14017.09 0,-7728.67 -6288.41,-14017.09 -14017.09,-14017.09zm0 24529.9c-5797.81,0 -10512.82,-4715 -10512.82,-10512.82 0,-5797.81 4715,-10512.82 10512.82,-10512.82 5797.81,0 10512.82,4715 10512.82,10512.82 0,5797.81 -4715,10512.82 -10512.82,10512.82z"/>
     <polygon class="fil0" points="15769.22,7008.54 12264.95,7008.54 12264.95,12264.95 7008.54,12264.95 7008.54,15769.22 12264.95,15769.22 12264.95,21025.63 15769.22,21025.63 15769.22,15769.22 21025.63,15769.22 21025.63,12264.95 15769.22,12264.95 "/>
    </g>
   </g>
   <g>
   </g>
   <g>
   </g>
   <g>
   </g>
   <g>
   </g>
   <g>
   </g>
   <g>
   </g>
   <g>
   </g>
   <g>
   </g>
   <g>
   </g>
   <g>
   </g>
   <g>
   </g>
   <g>
   </g>
   <g>
   </g>
   <g>
   </g>
   <g>
   </g>
  </g>
 </g>
</svg>
