<?xml version="1.0" encoding="UTF-8"?>
<!DOCTYPE svg PUBLIC "-//W3C//DTD SVG 1.1//EN" "http://www.w3.org/Graphics/SVG/1.1/DTD/svg11.dtd">
<!-- Creator: CorelDRAW 2019 (64 Bit) -->
<svg xmlns="http://www.w3.org/2000/svg" xml:space="preserve" width="158.393mm" height="210mm" version="1.1" style="shape-rendering:geometricPrecision; text-rendering:geometricPrecision; image-rendering:optimizeQuality; fill-rule:evenodd; clip-rule:evenodd"
viewBox="0 0 13676.96 18133.11"
 xmlns:xlink="http://www.w3.org/1999/xlink"
 xmlns:xodm="http://www.corel.com/coreldraw/odm/2003">
 <defs>
  <style type="text/css">
   <![CDATA[
    .fil0 {fill:#D2D3D5;fill-rule:nonzero}
   ]]>
  </style>
 </defs>
 <g id="Camada_x0020_1">
  <metadata id="CorelCorpID_0Corel-Layer"/>
  <g id="report-svgrepo-com.svg">
   <g>
    <g>
     <g>
      <path class="fil0" d="M8647.93 9317.39c-1805.06,0 -3273.53,1468.47 -3273.53,3273.53 0,1805.06 1468.47,3273.53 3273.53,3273.53 1805.06,0 3273.59,-1468.47 3273.59,-3273.53 0,-1805.06 -1468.65,-3273.53 -3273.59,-3273.53zm0 5347.36c-1143.48,0 -2073.82,-930.34 -2073.82,-2073.82 0,-353.93 89.32,-687.35 246.29,-979.13l1403.33 1403.33c112.52,112.46 265.1,175.71 424.2,175.71l1985.05 0c-258.01,851.82 -1050.12,1473.91 -1985.05,1473.91zm248.49 -2673.68l-1227.67 -1227.67c291.84,-156.97 625.26,-246.29 979.13,-246.29 935.05,0 1727.16,622.08 1985.11,1473.96l-1736.56 0z"/>
      <path class="fil0" d="M12180.22 1782.41l-1725.87 0c-210.94,-521.89 -722.58,-891.27 -1319.13,-891.27l-931.63 0c-231.34,-524.27 -756.15,-891.15 -1365.1,-891.15 -608.95,0 -1133.78,366.88 -1365.1,891.21l-931.63 0c-596.56,0 -1108.25,369.38 -1319.13,891.27l-1725.88 0c-825.26,0 -1496.74,671.47 -1496.74,1496.74l0 13357.21c0,825.26 671.47,1496.68 1496.74,1496.68l10683.48 -0.01c825.26,0 1496.74,-671.41 1496.74,-1496.68l0 -13357.27c0,-825.26 -671.48,-1496.73 -1496.74,-1496.73zm-7861.25 531.23l0 0c0.06,-122.78 100.01,-222.73 222.79,-222.73l1405.46 0c331.28,0 599.85,-268.58 599.85,-599.85 0,-160.63 130.71,-291.35 291.35,-291.35 160.63,0 291.35,130.71 291.35,291.35 0,331.28 268.58,599.85 599.85,599.85l1405.47 0c122.78,0 222.73,99.95 222.73,222.73l0 1028.58c0,122.78 -99.95,222.73 -222.73,222.73l-4593.4 -0.01c-122.78,0 -222.73,-99.95 -222.73,-222.73l0.01 -1028.57zm7861.25 14619.68l-10683.48 0c-163.81,0 -297.03,-133.22 -297.03,-296.97l0 -13357.21c0,-163.81 133.22,-297.03 297.03,-297.03l1622.58 0 0 360.04c0,784.36 638.14,1422.44 1422.44,1422.44l4593.39 0c784.36,0 1422.44,-638.14 1422.44,-1422.44l0 -360.04 1622.58 0c163.81,0 297.03,133.22 297.03,297.03l0 13357.21 0.06 0c-0.06,163.75 -133.29,296.97 -297.03,296.97z"/>
      <path class="fil0" d="M2382.34 6952.16l4456.15 0c331.28,0 599.85,-268.58 599.85,-599.85 0,-331.28 -268.58,-599.85 -599.85,-599.85l-4456.15 -0.01c-331.28,0 -599.85,268.58 -599.85,599.85 -0.07,331.28 268.51,599.86 599.85,599.86z"/>
      <path class="fil0" d="M2382.34 8734.63l2673.73 0c331.28,0 599.85,-268.58 599.85,-599.85 0,-331.28 -268.58,-599.85 -599.85,-599.85l-2673.73 -0.01c-331.28,0 -599.85,268.58 -599.85,599.85 -0.07,331.28 268.51,599.86 599.85,599.86z"/>
      <path class="fil0" d="M5655.86 9917.24c0,-331.28 -268.58,-599.85 -599.85,-599.85l-2673.67 0c-331.28,0 -599.85,268.58 -599.85,599.85 0,331.28 268.58,599.85 599.85,599.85l2673.73 0.01c331.28,0 599.79,-268.58 599.79,-599.86z"/>
     </g>
    </g>
   </g>
   <g>
   </g>
   <g>
   </g>
   <g>
   </g>
   <g>
   </g>
   <g>
   </g>
   <g>
   </g>
   <g>
   </g>
   <g>
   </g>
   <g>
   </g>
   <g>
   </g>
   <g>
   </g>
   <g>
   </g>
   <g>
   </g>
   <g>
   </g>
   <g>
   </g>
  </g>
 </g>
</svg>
