<?xml version="1.0" encoding="UTF-8"?>
<!DOCTYPE svg PUBLIC "-//W3C//DTD SVG 1.1//EN" "http://www.w3.org/Graphics/SVG/1.1/DTD/svg11.dtd">
<!-- Creator: CorelDRAW 2019 (64 Bit) -->
<svg xmlns="http://www.w3.org/2000/svg" xml:space="preserve" width="210mm" height="209.984mm" version="1.1" style="shape-rendering:geometricPrecision; text-rendering:geometricPrecision; image-rendering:optimizeQuality; fill-rule:evenodd; clip-rule:evenodd"
viewBox="0 0 23053.98 23052.24"
 xmlns:xlink="http://www.w3.org/1999/xlink"
 xmlns:xodm="http://www.corel.com/coreldraw/odm/2003">
 <defs>
  <style type="text/css">
   <![CDATA[
    .fil0 {fill:#A9ABAE;fill-rule:nonzero}
   ]]>
  </style>
 </defs>
 <g id="Camada_x0020_1">
  <metadata id="CorelCorpID_0Corel-Layer"/>
  <g id="search-svgrepo-com.svg">
   <g>
    <g>
     <path class="fil0" d="M22655.07 19302.36l-6476.08 -6480.79 -3351 3351 6480.79 6480.79c531.83,531.83 1407.23,531.83 1939.06,0l1407.23 -1407.23c531.88,-536.53 531.88,-1416.65 0,-1943.77z"/>
     <path class="fil0" d="M12973.94 14727.69l1755.51 -1755.51 -2000.24 -2000.24c1892,-2725.04 1628.44,-6499.62 -800.1,-8928.15 -2725.04,-2725.04 -7153.82,-2725.04 -9883.56,0 -2729.75,2725.04 -2725.04,7153.82 0,9883.56 2428.53,2428.53 6203.11,2692.09 8928.15,800.1l2000.24 2000.24zm-9572.94 -4174.62c-1976.72,-1976.72 -1976.72,-5181.81 0,-7153.82 1976.72,-1976.72 5181.81,-1976.72 7153.82,0 1976.72,1976.72 1976.72,5181.81 0,7153.82 -1972.01,1976.71 -5177.1,1976.71 -7153.82,0z"/>
    </g>
   </g>
   <g>
   </g>
   <g>
   </g>
   <g>
   </g>
   <g>
   </g>
   <g>
   </g>
   <g>
   </g>
   <g>
   </g>
   <g>
   </g>
   <g>
   </g>
   <g>
   </g>
   <g>
   </g>
   <g>
   </g>
   <g>
   </g>
   <g>
   </g>
   <g>
   </g>
  </g>
 </g>
</svg>
