<?xml version="1.0" encoding="UTF-8"?>
<!DOCTYPE svg PUBLIC "-//W3C//DTD SVG 1.1//EN" "http://www.w3.org/Graphics/SVG/1.1/DTD/svg11.dtd">
<!-- Creator: CorelDRAW 2019 (64 Bit) -->
<svg xmlns="http://www.w3.org/2000/svg" xml:space="preserve" width="139.999mm" height="152.068mm" version="1.1" style="shape-rendering:geometricPrecision; text-rendering:geometricPrecision; image-rendering:optimizeQuality; fill-rule:evenodd; clip-rule:evenodd"
viewBox="0 0 10722.33 11646.66"
 xmlns:xlink="http://www.w3.org/1999/xlink"
 xmlns:xodm="http://www.corel.com/coreldraw/odm/2003"
 enable-background="new 0 0 236 256">
 <defs>
  <style type="text/css">
   <![CDATA[
    .fil0 {fill:#A9ABAE;fill-rule:nonzero}
   ]]>
  </style>
 </defs>
 <g id="Camada_x0020_1">
  <metadata id="CorelCorpID_0Corel-Layer"/>
  <g id="service-counter-repair-service-repairman-svgrepo-com.svg">
   <path class="fil0" d="M5338.06 0c-576.34,0 -1045.88,469.57 -1045.88,1045.88 0,575.86 464.94,1045.43 1045.88,1045.43 571.7,0 1045.43,-469.57 1045.43,-1045.43 0,-576.31 -469.1,-1045.88 -1045.43,-1045.88zm1317.18 2310.85l-2634.35 0c-720.53,0 -1294.07,619.78 -1294.07,1340.29l0 1478.95 924.33 -0.02 0 -1247.85c0,-79.02 59.62,-138.66 138.66,-138.66 79.04,0 138.66,59.62 138.66,138.66l0 1247.87 2819.22 -0.02 0 -1247.85c0,-79.02 59.62,-138.66 138.66,-138.66 79.04,0 138.66,59.62 138.66,138.66l0 1247.87 924.32 -0.02 0 -1478.92c0,-715.9 -578.18,-1340.29 -1294.08,-1340.29zm-6655.23 3050.31l0 1247.86 1062.99 -0.02 0 5037.65 8550.14 0 0 -5037.65 1109.21 0 0 -1247.86 -10722.33 0.02zm6195.85 4104.51c47.6,-15.72 93.37,-26.81 140.97,-26.81 140.96,-5.08 261.58,37.91 364.19,131.26 103.06,91.97 158.52,205.66 161.75,349.86 4.63,42.99 0,93.36 -11.09,140.96l-403.94 -372.04 -364.19 397.46 408.55 370.67c-47.6,15.72 -93.37,26.81 -140.97,26.81 -140.96,5.09 -261.12,-37.9 -364.19,-131.26 -103.06,-98.45 -158.52,-212.13 -163.15,-353.09 0,-49.45 4.63,-104.91 15.72,-152.06l-97.98 -93.82 -587.88 -536.58 -994.58 1095.81c-60.09,80.88 -153.44,136.34 -261.13,136.34 -174.24,0 -315.21,-140.97 -315.21,-315.21 0,-93.37 36.51,-178.85 107.69,-239.39l1032.49 -1070.39 -623.94 -571.71c-48.99,22.19 -104.46,33.28 -152.06,33.28 -140.96,4.63 -261.13,-37.9 -364.19,-131.72 -103.06,-93.36 -158.52,-207.52 -163.15,-348.48 -4.63,-42.52 0,-93.37 11.09,-140.97l408.55 370.67 360.96 -395.61 -408.56 -370.67c42.99,-16.18 93.37,-27.27 140.97,-27.27 140.97,-4.63 261.58,38.36 364.19,131.72 103.06,91.97 158.52,212.13 163.15,353.1 5.09,47.6 0,93.36 -11.09,140.96l643.34 589.26 470.02 -508.38 -702.95 -619.3 638.25 -726.99 1807.08 1590.32 -638.26 726.99 -722.36 -636.88 -454.32 537.05 706.21 646.12z"/>
  </g>
 </g>
</svg>
