<?xml version="1.0" encoding="UTF-8"?>
<!DOCTYPE svg PUBLIC "-//W3C//DTD SVG 1.1//EN" "http://www.w3.org/Graphics/SVG/1.1/DTD/svg11.dtd">
<!-- Creator: CorelDRAW 2019 (64 Bit) -->
<svg xmlns="http://www.w3.org/2000/svg" xml:space="preserve" width="209.999mm" height="209.833mm" version="1.1" style="shape-rendering:geometricPrecision; text-rendering:geometricPrecision; image-rendering:optimizeQuality; fill-rule:evenodd; clip-rule:evenodd"
viewBox="0 0 20999.92 20983.28"
 xmlns:xlink="http://www.w3.org/1999/xlink"
 xmlns:xodm="http://www.corel.com/coreldraw/odm/2003">
 <defs>
  <style type="text/css">
   <![CDATA[
    .fil0 {fill:#848688;fill-rule:nonzero}
   ]]>
  </style>
 </defs>
 <g id="Camada_x0020_1">
  <metadata id="CorelCorpID_0Corel-Layer"/>
  <g id="twitter-svgrepo-com.svg">
   <g>
    <g>
     <path class="fil0" d="M15720.8 0.01l-10458.34 0c-2897.7,0 -5262.47,2364.79 -5262.47,5262.47l0 10474.99c0,2881.05 2364.79,5245.82 5262.47,5245.82l10474.99 -0.01c2897.7,0 5262.47,-2364.79 5262.47,-5262.47l0 -10458.34c-16.65,-2897.7 -2381.44,-5262.47 -5279.12,-5262.47l0 0.01zm-16.66 7860.41c0,116.57 0,233.15 0,349.72 0,3497.22 -2697.85,7527.34 -7643.91,7527.34 -1515.45,0 -2931,-432.99 -4113.39,-1182.39 216.49,16.65 416.34,33.31 632.83,33.31 1265.66,0 2414.74,-416.34 3330.68,-1132.43 -1182.39,-16.65 -2164.94,-782.71 -2514.66,-1831.88 166.53,33.31 333.07,49.96 499.6,49.96 249.8,0 499.6,-33.31 716.1,-99.92 -1199.05,-249.8 -2114.98,-1315.62 -2114.98,-2597.93l0 -33.32c333.07,199.84 766.06,316.42 1199.05,333.07 -716.1,-466.3 -1199.05,-1282.32 -1199.05,-2198.26 0,-482.95 133.23,-932.58 366.38,-1332.27 1332.27,1598.73 3297.37,2647.89 5528.94,2764.46 -49.96,-199.84 -66.61,-399.68 -66.61,-599.52 0,-1465.49 1199.05,-2647.89 2681.2,-2647.89 766.06,0 1465.49,316.42 1965.1,832.67 616.18,-116.57 1182.39,-333.07 1698.65,-649.48 -199.84,616.18 -632.83,1132.43 -1182.39,1465.49 549.56,-66.61 1065.82,-199.84 1548.76,-416.34 -366.4,532.92 -816.04,999.22 -1332.3,1365.59l0 0.02z"/>
    </g>
   </g>
   <g>
   </g>
   <g>
   </g>
   <g>
   </g>
   <g>
   </g>
   <g>
   </g>
   <g>
   </g>
   <g>
   </g>
   <g>
   </g>
   <g>
   </g>
   <g>
   </g>
   <g>
   </g>
   <g>
   </g>
   <g>
   </g>
   <g>
   </g>
   <g>
   </g>
  </g>
 </g>
</svg>
