<?xml version="1.0" encoding="UTF-8"?>
<!DOCTYPE svg PUBLIC "-//W3C//DTD SVG 1.1//EN" "http://www.w3.org/Graphics/SVG/1.1/DTD/svg11.dtd">
<!-- Creator: CorelDRAW 2019 (64 Bit) -->
<svg xmlns="http://www.w3.org/2000/svg" xml:space="preserve" width="161mm" height="210mm" version="1.1" style="shape-rendering:geometricPrecision; text-rendering:geometricPrecision; image-rendering:optimizeQuality; fill-rule:evenodd; clip-rule:evenodd"
viewBox="0 0 14515.81 18933.65"
 xmlns:xlink="http://www.w3.org/1999/xlink"
 xmlns:xodm="http://www.corel.com/coreldraw/odm/2003">
 <defs>
  <style type="text/css">
   <![CDATA[
    .fil0 {fill:#4B4B4D;fill-rule:nonzero}
   ]]>
  </style>
 </defs>
 <g id="Camada_x0020_1">
  <metadata id="CorelCorpID_0Corel-Layer"/>
  <g id="user-svgrepo-com.svg">
   <path class="fil0" d="M12942.43 13534.09l-3014.56 -1507.12c-284.32,-142.32 -461.03,-428.22 -461.03,-746.3l0 -1066.91c72.26,-88.36 148.31,-189.02 226.89,-300.1 390.97,-552.23 704.33,-1166.94 932.17,-1829.93 445.26,-204.17 734.31,-644.38 734.31,-1141.38l0 -1262.24c0,-303.89 -113.6,-598.3 -315.56,-828.35l0 -1678.47c17.67,-173.56 87.09,-1206.71 -660.15,-2059.04 -648.16,-739.36 -1699.93,-1114.25 -3126.58,-1114.25 -1426.65,0 -2478.42,374.89 -3126.58,1113.93 -747.25,852.33 -677.83,1885.79 -660.15,2059.35l0 1678.47c-201.96,230.04 -315.56,524.46 -315.56,828.35l0 1262.24c0,384.04 174.51,742.2 472.39,981.08 289.05,1144.54 893.98,2006.97 1105.41,2283.72l0 1044.19c0,305.46 -166.62,585.68 -434.53,732.09l-2815.12 1535.52c-915.44,499.53 -1483.77,1456.95 -1483.77,2499.55l0 1021.79c0,1497.65 4747.62,1893.37 7257.91,1893.37 2510.29,0 7257.91,-395.71 7257.91,-1893.37l0 -960.25c0,-1084.9 -603.04,-2060.61 -1573.39,-2545.95l0.01 0.01z"/>
   <g>
   </g>
   <g>
   </g>
   <g>
   </g>
   <g>
   </g>
   <g>
   </g>
   <g>
   </g>
   <g>
   </g>
   <g>
   </g>
   <g>
   </g>
   <g>
   </g>
   <g>
   </g>
   <g>
   </g>
   <g>
   </g>
   <g>
   </g>
   <g>
   </g>
  </g>
 </g>
</svg>
