<?xml version="1.0" encoding="UTF-8"?>
<!DOCTYPE svg PUBLIC "-//W3C//DTD SVG 1.1//EN" "http://www.w3.org/Graphics/SVG/1.1/DTD/svg11.dtd">
<!-- Creator: CorelDRAW 2019 (64 Bit) -->
<svg xmlns="http://www.w3.org/2000/svg" xml:space="preserve" width="210mm" height="209.833mm" version="1.1" style="shape-rendering:geometricPrecision; text-rendering:geometricPrecision; image-rendering:optimizeQuality; fill-rule:evenodd; clip-rule:evenodd"
viewBox="0 0 26178.44 26157.68"
 xmlns:xlink="http://www.w3.org/1999/xlink"
 xmlns:xodm="http://www.corel.com/coreldraw/odm/2003">
 <defs>
  <style type="text/css">
   <![CDATA[
    .fil0 {fill:#96989A;fill-rule:nonzero}
   ]]>
  </style>
 </defs>
 <g id="Camada_x0020_1">
  <metadata id="CorelCorpID_0Corel-Layer"/>
  <g id="whatsapp-svgrepo-com.svg">
   <g>
    <g>
     <path class="fil0" d="M13224.16 6186.49c-3716.06,0 -6726.26,2989.45 -6726.26,6684.73 0,1453.21 477.48,2823.37 1287.12,3923.64l-851.16 2491.19 2595 -830.41c1058.77,705.85 2345.88,1100.28 3716.06,1100.28 3716.06,0 6747.02,-2989.45 6747.02,-6684.73 -20.76,-3695.27 -3051.71,-6684.73 -6767.78,-6684.73l0 0.01zm3944.41 9445.82c-166.08,456.73 -975.72,892.69 -1328.65,934.21 -352.92,41.52 -352.92,290.64 -2366.64,-477.48 -1992.97,-788.88 -3259.32,-2802.61 -3363.13,-2947.93 -103.8,-124.56 -809.64,-1058.77 -809.64,-2013.72 0,-954.97 498.24,-1432.45 685.08,-1619.29 186.84,-186.84 394.45,-249.12 519.01,-249.12 124.56,0 269.88,20.76 373.68,20.76 124.56,0 269.88,-62.28 435.96,332.17 166.08,394.45 560.52,1349.4 602.04,1453.21 41.52,103.8 83.04,207.6 20.76,332.17 -62.28,124.56 -103.8,207.6 -186.84,332.17 -103.8,103.8 -207.6,249.12 -290.64,332.17 -103.8,103.8 -207.6,207.6 -83.04,394.45 124.56,186.84 519.01,830.41 1100.28,1349.4 747.36,664.32 1390.93,871.92 1577.77,975.72 186.84,103.8 311.4,83.04 415.2,-41.52 124.56,-124.56 498.24,-560.52 622.8,-768.13 124.56,-186.84 269.88,-166.08 435.96,-103.8 186.84,62.28 1141.81,539.76 1349.4,643.57 186.84,103.8 332.17,145.32 373.68,228.36 62.3,41.5 62.3,435.95 -83.02,892.66l-0.02 0z"/>
    </g>
   </g>
   <g>
    <g>
     <path class="fil0" d="M19597.5 0l-13037.32 0c-3612.26,0 -6560.18,2947.93 -6560.18,6560.18l0 13058.08c0,3591.5 2947.93,6539.42 6560.18,6539.42l13058.08 -0.01c3612.26,0 6560.18,-2947.93 6560.18,-6560.18l0 -13037.31c-20.76,-3612.26 -2968.69,-6560.18 -6580.94,-6560.18zm-6373.35 20822.33c-1411.68,0 -2719.57,-352.92 -3882.13,-996.49l-4442.65 1411.68 1453.21 -4255.82c-726.6,-1204.09 -1141.81,-2615.77 -1141.81,-4110.48 0,-4401.13 3591.5,-7951.11 8013.37,-7951.11 4421.88,0 8013.37,3549.97 8013.37,7951.11 0,4401.13 -3591.48,7951.12 -8013.36,7951.12z"/>
    </g>
   </g>
   <g>
   </g>
   <g>
   </g>
   <g>
   </g>
   <g>
   </g>
   <g>
   </g>
   <g>
   </g>
   <g>
   </g>
   <g>
   </g>
   <g>
   </g>
   <g>
   </g>
   <g>
   </g>
   <g>
   </g>
   <g>
   </g>
   <g>
   </g>
   <g>
   </g>
  </g>
 </g>
</svg>
