<?xml version="1.0" encoding="iso-8859-1"?>
<!-- Generator: Adobe Illustrator 19.0.0, SVG Export Plug-In . SVG Version: 6.00 Build 0)  -->
<svg version="1.1" id="Layer_1" xmlns="http://www.w3.org/2000/svg" xmlns:xlink="http://www.w3.org/1999/xlink" x="0px" y="0px"
	 viewBox="0 0 512 512" style="enable-background:new 0 0 512 512;" xml:space="preserve">
<polygon style="fill:#FEA680;" points="250.785,8.17 240.099,8.17 318.87,449.362 351.551,449.362 351.551,117.106 "/>
<path style="fill:#FFC1A6;" d="M318.402,138.894l0.468,310.468H51.977V117.106L152.743,8.17h87.356l78.303,108.936V138.894
	l-92.596,138.894l92.596,138.894V138.894z M223.551,73.532c0-12.027-9.75-21.787-21.787-21.787
	c-12.027,0-21.787,9.761-21.787,21.787c0,12.037,9.761,21.787,21.787,21.787C213.801,95.319,223.551,85.569,223.551,73.532z"/>
<polygon style="fill:#FFF1B1;" points="318.402,138.894 318.402,416.681 285.721,416.681 242.147,277.787 285.721,138.894 "/>
<rect x="84.186" y="138.894" style="fill:#FFFFFF;" width="201.532" height="277.787"/>
<path style="fill:#FE5F1A;" d="M351.083,285.957V503.83c60.165,0,108.936-48.771,108.936-108.936
	C460.019,334.727,411.248,285.957,351.083,285.957z"/>
<path style="fill:#FE834D;" d="M351.083,285.957c42.115,0,76.255,48.771,76.255,108.936S393.197,503.83,351.083,503.83
	c-60.165,0-108.936-48.771-108.936-108.936S290.917,285.957,351.083,285.957z"/>
<path style="fill:#FFFFFF;" d="M401.152,421.853l-26.961-26.96l26.961-26.961c6.382-6.382,6.382-16.727,0-23.109
	c-6.381-6.382-16.727-6.382-23.109,0l-26.961,26.961l-26.961-26.961c-6.381-6.382-16.727-6.382-23.109,0
	c-6.381,6.381-6.381,16.727,0,23.109l26.961,26.961l-26.961,26.961c-6.381,6.381-6.381,16.727,0,23.109
	c6.382,6.381,16.727,6.381,23.109,0l26.961-26.961l26.961,26.961c6.382,6.381,16.727,6.381,23.109,0
	C407.534,438.581,407.533,428.235,401.152,421.853z"/>
<path d="M231.726,73.532c0-16.519-13.439-29.957-29.957-29.957s-29.957,13.438-29.957,29.957s13.439,29.957,29.957,29.957
	S231.726,90.051,231.726,73.532z M188.151,73.532c0-7.509,6.108-13.617,13.617-13.617c7.509,0,13.617,6.108,13.617,13.617
	s-6.108,13.617-13.617,13.617C194.259,87.149,188.151,81.041,188.151,73.532z"/>
<path d="M220.366,441.191H60.151V120.306L156.319,16.34h90.897l96.168,103.965v132.976c0,4.512,3.657,8.17,8.17,8.17
	c4.513,0,8.17-3.658,8.17-8.17V117.106c0-2.057-0.776-4.038-2.172-5.548L256.787,2.622C255.24,0.951,253.066,0,250.79,0h-98.043
	c-2.278,0-4.451,0.951-5.998,2.622L45.983,111.558c-1.397,1.51-2.172,3.491-2.172,5.548v332.255c0,4.512,3.657,8.17,8.17,8.17
	h168.385c4.513,0,8.17-3.658,8.17-8.17C228.536,444.85,224.878,441.191,220.366,441.191z"/>
<circle cx="201.292" cy="277.787" r="8.17"/>
<circle cx="239.42" cy="277.787" r="8.17"/>
<circle cx="163.165" cy="277.787" r="8.17"/>
<path d="M318.402,265.26c4.513,0,8.17-3.658,8.17-8.17V138.895c0-4.512-3.657-8.17-8.17-8.17H84.189c-4.513,0-8.17,3.658-8.17,8.17
	v277.786c0,4.512,3.657,8.17,8.17,8.17h126.953c4.513,0,8.17-3.658,8.17-8.17c0-4.512-3.657-8.17-8.17-8.17H92.359V147.065h217.872
	v110.024C310.232,261.602,313.889,265.26,318.402,265.26z"/>
<path d="M351.083,277.787c-64.572,0-117.106,52.533-117.106,117.106S286.511,512,351.083,512s117.106-52.533,117.106-117.106
	S415.655,277.787,351.083,277.787z M351.083,495.66c-55.563,0-100.766-45.203-100.766-100.766s45.203-100.766,100.766-100.766
	s100.766,45.203,100.766,100.766S406.646,495.66,351.083,495.66z"/>
<path d="M414.108,356.379c0-6.547-2.55-12.703-7.179-17.332c-4.63-4.63-10.785-7.179-17.332-7.179
	c-6.547,0-12.702,2.55-17.332,7.179l-21.183,21.183L329.9,339.047c-4.63-4.63-10.785-7.179-17.332-7.179
	c-6.547,0-12.702,2.55-17.331,7.179c-4.63,4.63-7.18,10.785-7.18,17.333c0,6.547,2.55,12.702,7.179,17.332l21.184,21.183
	l-21.184,21.183c-4.629,4.63-7.179,10.785-7.179,17.332c0,6.547,2.55,12.703,7.179,17.332c4.63,4.63,10.785,7.179,17.332,7.179
	c6.547,0,12.702-2.55,17.332-7.179l21.183-21.183l21.183,21.183c4.63,4.63,10.785,7.179,17.332,7.179s12.702-2.55,17.331-7.179
	c4.63-4.63,7.18-10.785,7.18-17.333c0-6.547-2.55-12.702-7.179-17.332l-21.184-21.183l21.184-21.183
	C411.559,369.08,414.108,362.925,414.108,356.379z M395.374,362.156l-26.961,26.961c-1.532,1.532-2.392,3.61-2.392,5.777
	c0,2.167,0.861,4.245,2.392,5.777l26.961,26.961c1.544,1.544,2.393,3.595,2.393,5.778s-0.85,4.234-2.393,5.777
	c-1.543,1.544-3.595,2.393-5.777,2.393s-4.234-0.85-5.777-2.393l-26.961-26.961c-1.596-1.595-3.688-2.393-5.778-2.393
	c-2.09,0-4.182,0.797-5.778,2.393l-26.961,26.961c-1.543,1.544-3.595,2.393-5.777,2.393s-4.234-0.85-5.778-2.393
	c-1.543-1.543-2.392-3.594-2.392-5.777s0.85-4.234,2.393-5.778l26.961-26.961c1.532-1.532,2.392-3.61,2.392-5.777
	c0-2.167-0.861-4.245-2.392-5.777l-26.961-26.961c-1.544-1.544-2.393-3.595-2.393-5.778s0.85-4.234,2.393-5.777
	c1.543-1.544,3.595-2.393,5.777-2.393s4.234,0.85,5.777,2.393l26.961,26.961c3.192,3.191,8.364,3.191,11.555,0l26.961-26.961
	c1.543-1.544,3.595-2.393,5.777-2.393s4.234,0.85,5.778,2.393c1.543,1.543,2.392,3.594,2.392,5.777S396.918,360.612,395.374,362.156
	z"/>
<g>
</g>
<g>
</g>
<g>
</g>
<g>
</g>
<g>
</g>
<g>
</g>
<g>
</g>
<g>
</g>
<g>
</g>
<g>
</g>
<g>
</g>
<g>
</g>
<g>
</g>
<g>
</g>
<g>
</g>
</svg>
