<?xml version="1.0" encoding="UTF-8"?>
<!DOCTYPE svg PUBLIC "-//W3C//DTD SVG 1.1//EN" "http://www.w3.org/Graphics/SVG/1.1/DTD/svg11.dtd">
<!-- Creator: CorelDRAW 2019 (64 Bit) -->
<svg xmlns="http://www.w3.org/2000/svg" xml:space="preserve" width="57.1785mm" height="28.7682mm" version="1.1" style="shape-rendering:geometricPrecision; text-rendering:geometricPrecision; image-rendering:optimizeQuality; fill-rule:evenodd; clip-rule:evenodd"
viewBox="0 0 5717.86 2876.83"
 xmlns:xlink="http://www.w3.org/1999/xlink"
 xmlns:xodm="http://www.corel.com/coreldraw/odm/2003">
 <defs>
  <style type="text/css">
   <![CDATA[
    .fil0 {fill:#FEFEFE;fill-rule:nonzero}
   ]]>
  </style>
 </defs>
 <g id="Camada_x0020_1">
  <metadata id="CorelCorpID_0Corel-Layer"/>
  <path class="fil0" d="M5674.28 1797.5c27.9,48.26 42.63,103.11 42.63,158.89 0,175.33 -142.18,317.51 -317.51,317.51 -113.46,0 -218.39,-60.63 -275.06,-158.89l-430.66 -745.91c-242.55,150.82 -504.31,271.44 -777.14,356.37l137.32 778.71c3.32,18.13 4.95,36.7 4.95,55.15 0,175.32 -142.17,317.49 -317.49,317.49 -154.04,0 -285.94,-110.66 -312.68,-262.33l-133.69 -758.15c-143.8,16.87 -289.4,25.49 -434.57,25.49 -145.6,0 -292.57,-9.07 -436.82,-25.86l-133.66 758.09c-26.89,151.77 -158.79,262.43 -312.83,262.43 -175.32,0 -317.49,-142.17 -317.49,-317.49 0,-18.45 1.63,-37.02 4.81,-55.16l137.36 -779.06c-272.36,-84.99 -533.71,-205.62 -775.77,-356.6l-433.59 751.01c-56.71,98.09 -161.53,158.6 -274.87,158.6 -175.33,0 -317.51,-142.18 -317.51,-317.51 0,-55.66 14.65,-110.4 42.45,-158.62l472.42 -818.24c-158.86,-143.13 -307.29,-299.48 -441.37,-466.21 -45.73,-56.62 -70.65,-127.12 -70.65,-199.72 0,-175.32 142.17,-317.49 317.49,-317.49 95.89,0 186.71,43.37 246.95,117.95 416.08,515 1151.62,1128.89 2293.07,1128.89 1141.43,0 1876.97,-613.89 2293.04,-1128.87 60.25,-74.6 151.07,-117.97 246.96,-117.97 175.32,0 317.49,142.17 317.49,317.49 0,72.6 -24.92,143.1 -70.54,199.54 -134.72,166.47 -283.08,323.73 -442.31,467.12l469.26 813.35 0.01 0z"/>
 </g>
</svg>
