<?xml version="1.0" encoding="UTF-8"?>
<!DOCTYPE svg PUBLIC "-//W3C//DTD SVG 1.1//EN" "http://www.w3.org/Graphics/SVG/1.1/DTD/svg11.dtd">
<!-- Creator: CorelDRAW 2019 (64 Bit) -->
<svg xmlns="http://www.w3.org/2000/svg" xml:space="preserve" width="210mm" height="153.883mm" version="1.1" style="shape-rendering:geometricPrecision; text-rendering:geometricPrecision; image-rendering:optimizeQuality; fill-rule:evenodd; clip-rule:evenodd"
viewBox="0 0 20999.94 15388.26"
 xmlns:xlink="http://www.w3.org/1999/xlink"
 xmlns:xodm="http://www.corel.com/coreldraw/odm/2003">
 <defs>
  <style type="text/css">
   <![CDATA[
    .fil0 {fill:#FEFEFE;fill-rule:nonzero}
   ]]>
  </style>
 </defs>
 <g id="Camada_x0020_1">
  <metadata id="CorelCorpID_0Corel-Layer"/>
  <g id="_2433210402736">
   <g>
    <path class="fil0" d="M19268.25 0l-17536.53 0c-954.84,0 -1731.72,776.87 -1731.72,1731.72l0 10521.88c0,954.88 776.88,1731.72 1731.72,1731.72l2143.81 0c480.54,837.29 1383.01,1402.94 2415.7,1402.94 1032.69,0 1935.16,-565.65 2415.7,-1402.94l10561.29 0c954.88,0 1731.72,-776.88 1731.72,-1731.72l0 -10521.88c0.04,-954.85 -776.84,-1731.72 -1731.68,-1731.72zm-12977.04 14730.66c-1172.43,0 -2126.29,-953.86 -2126.29,-2126.29 0,-1172.43 953.86,-2126.29 2126.29,-2126.29 1172.43,0 2126.29,953.86 2126.29,2126.29 0.04,1172.47 -953.81,2126.29 -2126.29,2126.29zm-903.24 -7505.07c-115.54,-57.75 -193.96,-173.62 -204.91,-305.07l-76.62 -835.16c-7.71,-83.96 -47.33,-161.72 -110.78,-217.26 -83.3,-73.01 -129.2,-171.81 -129.2,-278.29l0 -1052.17c0,-398.88 324.52,-723.39 723.39,-723.39l2126.25 -0.01 0 1775.57c0,106.48 -45.9,205.32 -129.2,278.29 -63.45,55.54 -103.07,133.38 -110.78,217.26l-76.86 837.95c-10.75,128.71 -89.17,244.54 -204.71,302.33 -111.6,55.82 -182.03,170.01 -181.78,294.82l1.31 623.68c0.62,292.28 187.32,550.8 464.67,643.25l1385.47 461.79c152.37,50.82 254.79,192.86 254.79,353.55l0 897.34c0,12.06 -9.8,21.9 -21.9,21.9l-961.06 0c-491.57,-435.96 -1137.61,-701.45 -1844.8,-701.45 -707.19,0 -1353.27,265.49 -1844.84,701.45l-961.04 0c-12.1,0 -21.9,-9.88 -21.9,-21.9l0 -897.34c0,-160.66 102.42,-302.74 254.79,-353.55l1385.47 -461.79c277.31,-92.41 464.01,-350.97 464.67,-643.25l1.31 -623.68c0.28,-124.86 -70.14,-239.01 -181.74,-294.87zm3293.72 3953.93l415.4 0c374.72,0 679.55,-304.83 679.55,-679.55l0 -897.34c0,-444.16 -283.13,-836.92 -704.48,-977.4l-1385.47 -461.79c-8.94,-2.99 -14.97,-11.32 -15.01,-20.75l-0.9 -445.72c218.08,-175.05 360.16,-435.3 383.58,-716.34l65.91 -718.27c162.42,-186.62 253.48,-425.13 253.48,-672.62l0 -2104.39c0,-181.58 -147.21,-328.82 -328.82,-328.82l-2455.13 0.01c-761.5,0 -1381,619.54 -1381,1381l0 1052.17c0,247.49 91.05,485.99 253.48,672.62l65.67 715.44c23.58,283.21 165.79,543.95 383.78,719.09l-0.9 445.72c0,9.43 -6.07,17.76 -15.01,20.75l-1385.47 461.84c-421.35,140.44 -704.48,533.24 -704.48,977.4l0 897.34c0,374.72 304.83,679.55 679.55,679.55l415.4 -0.02c-137.2,229.24 -242.36,479.72 -309.22,745.29l-1509.16 0.01c-12.1,0 -21.9,-9.88 -21.9,-21.9l-0.01 -9820.37c0,-12.06 9.8,-21.9 21.9,-21.9l8417.55 0c12.1,0 21.9,9.88 21.9,21.9l0 9820.44c0,12.06 -9.8,21.9 -21.9,21.9l-1509.05 0.01c-66.93,-265.58 -172.1,-516.06 -309.25,-745.3zm11660.68 1074.12c0,592.27 -481.85,1074.12 -1074.12,1074.12l-10289.05 0c62.18,-230.84 95.94,-473.2 95.94,-723.39 0,-7.3 -0.49,-14.6 -0.57,-21.9l1425.41 -0.01c374.72,0 679.55,-304.83 679.55,-679.55l0 -9820.44c0,-374.72 -304.83,-679.55 -679.55,-679.55l-8417.54 0.01c-374.72,0 -679.55,304.83 -679.55,679.55l0 9820.44c0,374.72 304.83,679.55 679.55,679.55l1425.41 -0.01c-0.04,7.3 -0.57,14.6 -0.57,21.9 0,250.2 33.71,492.56 95.89,723.39l-1871.46 0.01c-592.27,0 -1074.12,-481.85 -1074.12,-1074.12l0 -10521.92c0,-592.27 481.85,-1074.12 1074.12,-1074.12l17536.49 0c592.27,0 1074.12,481.85 1074.12,1074.12l0 10521.92 0.04 0z"/>
   </g>
  </g>
  <g id="_2433210403056">
   <g>
    <path class="fil0" d="M7565.53 11660.56c-133.79,-122.76 -341.78,-113.7 -464.5,20.18l-1071.12 1168.49 -576.93 -494.48c-137.94,-118.21 -345.43,-102.25 -463.64,35.64 -118.21,137.89 -102.25,345.47 35.64,463.64l818.38 701.45c61.89,53.03 138.02,79.16 213.86,79.16 89.09,0 177.76,-36.01 242.48,-106.64l1286 -1402.94c122.73,-133.79 113.66,-341.79 -20.17,-464.5z"/>
   </g>
  </g>
  <g id="_2433210403984">
   <g>
    <path class="fil0" d="M17163.87 2104.39l-4910.22 0c-181.58,0 -328.82,147.21 -328.82,328.82 0,181.58 147.21,328.82 328.82,328.82l4910.22 0c181.58,0 328.82,-147.21 328.82,-328.82 0,-181.62 -147.24,-328.82 -328.82,-328.82z"/>
   </g>
  </g>
  <g id="_2433210405168">
   <g>
    <path class="fil0" d="M18917.52 3507.32l-6663.88 0c-181.58,0 -328.82,147.21 -328.82,328.82 0,181.61 147.21,328.82 328.82,328.82l6663.88 0c181.58,0 328.82,-147.21 328.82,-328.82 0,-181.61 -147.24,-328.82 -328.82,-328.82z"/>
   </g>
  </g>
  <g id="_2433210406672">
   <g>
    <path class="fil0" d="M18917.52 8417.54l-4559.49 0c-181.58,0 -328.82,147.21 -328.82,328.82 0,181.61 147.21,328.82 328.82,328.82l4559.49 0.01c181.58,0 328.82,-147.21 328.82,-328.82 0,-181.61 -147.24,-328.83 -328.82,-328.83z"/>
   </g>
  </g>
  <g id="_2433210407888">
   <g>
    <path class="fil0" d="M12955.09 8417.54l-701.45 0c-181.58,0 -328.82,147.21 -328.82,328.82 0,181.61 147.21,328.82 328.82,328.82l701.45 0.01c181.58,0 328.82,-147.21 328.82,-328.82 0,-181.61 -147.24,-328.83 -328.82,-328.83z"/>
   </g>
  </g>
  <g id="_2433210408976">
   <g>
    <path class="fil0" d="M17865.31 9820.44l-3507.28 0c-181.58,0 -328.82,147.21 -328.82,328.82 0,181.61 147.21,328.82 328.82,328.82l3507.28 0.01c181.58,0 328.82,-147.21 328.82,-328.82 0,-181.61 -147.24,-328.83 -328.82,-328.83z"/>
   </g>
  </g>
  <g id="_2433210411056">
   <g>
    <path class="fil0" d="M12955.09 9820.44l-701.45 0c-181.58,0 -328.82,147.21 -328.82,328.82 0,181.61 147.21,328.82 328.82,328.82l701.45 0.01c181.58,0 328.82,-147.21 328.82,-328.82 0,-181.61 -147.24,-328.83 -328.82,-328.83z"/>
   </g>
  </g>
  <g id="_2433210409264">
   <g>
    <path class="fil0" d="M17865.31 11223.37l-3507.28 0c-181.58,0 -328.82,147.21 -328.82,328.82 0,181.61 147.21,328.82 328.82,328.82l3507.28 0.01c181.58,0 328.82,-147.21 328.82,-328.82 0,-181.61 -147.24,-328.83 -328.82,-328.83z"/>
   </g>
  </g>
  <g id="_2433210410800">
   <g>
    <path class="fil0" d="M12955.09 11223.37l-701.45 0c-181.58,0 -328.82,147.21 -328.82,328.82 0,181.61 147.21,328.82 328.82,328.82l701.45 0.01c181.58,0 328.82,-147.21 328.82,-328.82 0,-181.61 -147.24,-328.83 -328.82,-328.83z"/>
   </g>
  </g>
  <g id="_2433210351984">
   <g>
    <path class="fil0" d="M12955.09 5260.94c-568.11,0 -1030.27,462.16 -1030.27,1030.27 0,568.11 462.16,1030.27 1030.27,1030.27 568.11,0 1030.27,-462.16 1030.27,-1030.27 0,-568.11 -462.16,-1030.27 -1030.27,-1030.27zm0 1402.94c-205.49,0 -372.67,-167.18 -372.67,-372.67 0,-205.49 167.18,-372.67 372.67,-372.67 205.49,0 372.67,167.18 372.67,372.67 0,205.49 -167.18,372.67 -372.67,372.67z"/>
   </g>
  </g>
  <g id="_2433210353520">
   <g>
    <path class="fil0" d="M15760.93 5260.94c-568.11,0 -1030.27,462.16 -1030.27,1030.27 0,568.11 462.16,1030.27 1030.27,1030.27 568.11,0 1030.27,-462.16 1030.27,-1030.27 0,-568.11 -462.16,-1030.27 -1030.27,-1030.27zm0 1402.94c-205.49,0 -372.67,-167.18 -372.67,-372.67 0,-205.49 167.18,-372.67 372.67,-372.67 205.49,0 372.67,167.18 372.67,372.67 0,205.49 -167.18,372.67 -372.67,372.67z"/>
   </g>
  </g>
  <g id="_2433210354800">
   <g>
    <path class="fil0" d="M18566.76 5260.94c-568.11,0 -1030.27,462.16 -1030.27,1030.27 0,568.11 462.16,1030.27 1030.27,1030.27 568.11,0 1030.27,-462.16 1030.27,-1030.27 0,-568.11 -462.16,-1030.27 -1030.27,-1030.27zm0 1402.94c-205.49,0 -372.67,-167.18 -372.67,-372.67 0,-205.49 167.18,-372.67 372.67,-372.67 205.49,0 372.67,167.18 372.67,372.67 0,205.49 -167.18,372.67 -372.67,372.67z"/>
   </g>
  </g>
  <g id="_2433210356272">
  </g>
  <g id="_2433210358736">
  </g>
  <g id="_2433210358000">
  </g>
  <g id="_2433210361776">
  </g>
  <g id="_2433210361360">
  </g>
  <g id="_2433210364528">
  </g>
  <g id="_2433210366704">
  </g>
  <g id="_2433210367856">
  </g>
  <g id="_2433210369232">
  </g>
  <g id="_2433210369680">
  </g>
  <g id="_2433210369456">
  </g>
  <g id="_2433210371440">
  </g>
  <g id="_2433210370512">
  </g>
  <g id="_2433210371536">
  </g>
  <g id="_2433210370800">
  </g>
 </g>
</svg>
