<?xml version="1.0" encoding="UTF-8"?>
<!DOCTYPE svg PUBLIC "-//W3C//DTD SVG 1.1//EN" "http://www.w3.org/Graphics/SVG/1.1/DTD/svg11.dtd">
<!-- Creator: CorelDRAW 2019 (64 Bit) -->
<svg xmlns="http://www.w3.org/2000/svg" xml:space="preserve" width="210mm" height="210mm" version="1.1" style="shape-rendering:geometricPrecision; text-rendering:geometricPrecision; image-rendering:optimizeQuality; fill-rule:evenodd; clip-rule:evenodd"
viewBox="0 0 21000 21000"
 xmlns:xlink="http://www.w3.org/1999/xlink"
 xmlns:xodm="http://www.corel.com/coreldraw/odm/2003">
 <defs>
  <style type="text/css">
   <![CDATA[
    .fil0 {fill:#FEFEFE;fill-rule:nonzero}
   ]]>
  </style>
 </defs>
 <g id="Camada_x0020_1">
  <metadata id="CorelCorpID_0Corel-Layer"/>
  <g id="_2251266929232">
   <g>
    <g>
     <path class="fil0" d="M20571.43 13928.57l-214.29 0 0 -12000c0,-236.7 -191.87,-428.57 -428.57,-428.57l-7071.43 0 0 -1071.43c0,-236.7 -191.87,-428.57 -428.57,-428.57l-3857.14 0c-236.7,0 -428.57,191.87 -428.57,428.57l0 1071.43 -7071.43 0c-236.7,0 -428.57,191.87 -428.57,428.57l0 12000 -214.29 0c-236.7,0 -428.57,191.87 -428.57,428.57l0 1500c0,236.7 191.87,428.57 428.57,428.57l6528.77 0 -2181.99 3636.64 734.96 441 2446.63 -4077.64 2114.49 0 0 4714.29 857.14 0 0 -4714.29 2114.49 0 2446.59 4077.64 734.96 -441 -2181.95 -3636.64 6528.77 0c236.7,0 428.57,-191.87 428.57,-428.57l0 -1500c0,-236.7 -191.87,-428.57 -428.57,-428.57zm-11571.43 -13071.43l3000 0 0 642.86 -3000 0 0 -642.86zm-7500 1500l18000 0 0 11571.43 -18000 0 0 -11571.43zm18642.86 13071.43l-19285.72 0 0 -642.86 19285.72 0 0 642.86z"/>
     <path class="fil0" d="M7285.71 3857.14c-2363.14,0 -4285.71,1922.57 -4285.71,4285.71 0,2363.14 1922.57,4285.71 4285.71,4285.71 2363.14,0 4285.71,-1922.57 4285.71,-4285.71 0,-2363.14 -1922.56,-4285.71 -4285.71,-4285.71zm0 7714.29c-1890.51,0 -3428.57,-1538.06 -3428.57,-3428.57 0,-1745.31 1311.13,-3189.13 3000,-3400.84l0 3400.84c0,236.7 191.87,428.57 428.57,428.57l3400.85 0c-211.72,1688.87 -1655.53,3000 -3400.85,3000zm428.58 -3857.14l0 -2972.27c1548.34,194.1 2778.17,1423.93 2972.27,2972.27l-2972.27 0z"/>
     <rect class="fil0" x="14785.71" y="5571.43" width="3000" height="857.14"/>
     <rect class="fil0" x="14785.71" y="6857.14" width="3000" height="857.14"/>
     <rect class="fil0" x="14785.71" y="8142.86" width="3000" height="857.14"/>
     <rect class="fil0" x="14785.72" y="4285.72" width="1928.57" height="857.14"/>
     <path class="fil0" d="M13928.53 5142.81l0 -857.14 -1928.57 0c-113.66,0 -222.69,45.17 -303.04,125.53l-642.86 642.86 606.13 606.13 517.29 -517.37 1751.05 -0.01z"/>
     <rect class="fil0" x="13285.72" y="10071.43" width="4928.57" height="857.14"/>
     <rect class="fil0" x="12000.01" y="11571.43" width="6214.29" height="857.14"/>
    </g>
   </g>
  </g>
 </g>
</svg>
