<?xml version="1.0" encoding="UTF-8"?>
<!DOCTYPE svg PUBLIC "-//W3C//DTD SVG 1.1//EN" "http://www.w3.org/Graphics/SVG/1.1/DTD/svg11.dtd">
<!-- Creator: CorelDRAW 2019 (64 Bit) -->
<svg xmlns="http://www.w3.org/2000/svg" xml:space="preserve" width="117.475mm" height="91.3395mm" version="1.1" style="shape-rendering:geometricPrecision; text-rendering:geometricPrecision; image-rendering:optimizeQuality; fill-rule:evenodd; clip-rule:evenodd"
viewBox="0 0 11747.5 9133.97"
 xmlns:xlink="http://www.w3.org/1999/xlink"
 xmlns:xodm="http://www.corel.com/coreldraw/odm/2003">
 <defs>
  <style type="text/css">
   <![CDATA[
    .fil0 {fill:#FEFEFE;fill-rule:nonzero}
   ]]>
  </style>
 </defs>
 <g id="Camada_x0020_1">
  <metadata id="CorelCorpID_0Corel-Layer"/>
  <path class="fil0" d="M4878.64 6276.45l750.89 751.16 -2375.16 0c-1358.73,-0.01 -2460.62,-1101.9 -2460.62,-2460.63 0,-1358.74 1101.89,-2460.63 2460.63,-2460.63l476.23 0 0 -793.74 -476.24 0c-1797.03,0 -3254.37,1457.33 -3254.37,3254.38 0,1797.03 1457.33,3254.37 3254.38,3254.37l2375.15 0.02 -750.89 750.89 561.45 561.71 1709.47 -1709.48 -1709.47 -1709.47 -561.45 561.44z"/>
  <path class="fil0" d="M8493.12 1312.6l-2375.17 0 750.89 -750.89 -561.45 -561.71 -1709.47 1709.47 1709.47 1709.47 561.45 -561.45 -750.89 -751.15 2375.17 0c1358.74,0 2460.63,1101.89 2460.63,2460.63 0,1358.73 -1101.89,2460.62 -2460.63,2460.62l-491.07 0.01 0 793.75 491.07 0c1797.04,-0.02 3254.38,-1457.35 3254.38,-3254.39 0,-1797.04 -1457.33,-3254.38 -3254.38,-3254.38z"/>
 </g>
</svg>
