<?xml version="1.0" encoding="UTF-8"?>
<!DOCTYPE svg PUBLIC "-//W3C//DTD SVG 1.1//EN" "http://www.w3.org/Graphics/SVG/1.1/DTD/svg11.dtd">
<!-- Creator: CorelDRAW 2019 (64 Bit) -->
<svg xmlns="http://www.w3.org/2000/svg" xml:space="preserve" width="79.8363mm" height="76.7326mm" version="1.1" style="shape-rendering:geometricPrecision; text-rendering:geometricPrecision; image-rendering:optimizeQuality; fill-rule:evenodd; clip-rule:evenodd"
viewBox="0 0 6552.97 6298.21"
 xmlns:xlink="http://www.w3.org/1999/xlink"
 xmlns:xodm="http://www.corel.com/coreldraw/odm/2003">
 <defs>
  <style type="text/css">
   <![CDATA[
    .fil0 {fill:#FEFEFE;fill-rule:nonzero}
   ]]>
  </style>
 </defs>
 <g id="Camada_x0020_1">
  <metadata id="CorelCorpID_0Corel-Layer"/>
  <g id="__xd83d__xdd0d_-Product-Icons">
   <g id="ic_fluent_send_28_filled">
    <path id="__xd83c__xdfa8_-Color" class="fil0" d="M497.52 34l5857.77 2801.59c173.16,82.79 246.39,290.3 163.59,463.46 -34.25,71.56 -91.94,129.24 -163.59,163.5l-5857.77 2801.59c-173.16,82.79 -380.56,9.56 -463.36,-163.59 -36.04,-75.23 -43.71,-160.87 -21.85,-241.35l585.97 -2148.37c14.61,-53.8 60.1,-93.61 115.37,-101.18l2838.47 -385.51c24.48,-3.46 44.76,-19.54 54.11,-41.5l4.94 -17.44c4.62,-32.57 -14.08,-63.14 -43.5,-74.6l-15.55 -4.1 -2835.21 -385.5c-55.27,-7.57 -100.66,-47.39 -115.37,-101.19l-589.23 -2160.87c-50.44,-185.13 58.73,-376.15 243.86,-426.68 80.49,-21.96 166.12,-14.18 241.35,21.75z"/>
   </g>
  </g>
 </g>
</svg>
