<?xml version="1.0" encoding="UTF-8"?>
<!DOCTYPE svg PUBLIC "-//W3C//DTD SVG 1.1//EN" "http://www.w3.org/Graphics/SVG/1.1/DTD/svg11.dtd">
<!-- Creator: CorelDRAW 2019 (64 Bit) -->
<svg xmlns="http://www.w3.org/2000/svg" xml:space="preserve" width="210mm" height="209.957mm" version="1.1" style="shape-rendering:geometricPrecision; text-rendering:geometricPrecision; image-rendering:optimizeQuality; fill-rule:evenodd; clip-rule:evenodd"
viewBox="0 0 21000 20995.72"
 xmlns:xlink="http://www.w3.org/1999/xlink"
 xmlns:xodm="http://www.corel.com/coreldraw/odm/2003">
 <defs>
  <style type="text/css">
   <![CDATA[
    .fil0 {fill:#FEFEFE;fill-rule:nonzero}
   ]]>
  </style>
 </defs>
 <g id="Camada_x0020_1">
  <metadata id="CorelCorpID_0Corel-Layer"/>
  <g id="_2251258980752">
   <g>
    <path class="fil0" d="M10497.86 11213.43c3080.8,0 5630.28,-2455.21 5630.28,-5583.15 0,-3127.94 -2549.48,-5630.28 -5630.28,-5630.28 -3080.8,0 -5630.28,2455.21 -5630.28,5583.15 0,3127.94 2549.48,5630.28 5630.28,5630.28zm0 -9469.5c2142.42,0 3886.35,1743.93 3886.35,3843.5 0,2099.57 -1743.93,3839.22 -3886.35,3839.22 -2142.42,0 -3886.35,-1743.93 -3886.35,-3843.5 0,-2099.57 1743.93,-3839.22 3886.35,-3839.22z"/>
    <path class="fil0" d="M14294.23 11749.03c-355.64,-89.98 -715.57,0 -938.38,269.94l-2857.99 3260.76 -2857.99 -3260.76c-222.81,-269.94 -625.59,-355.64 -938.38,-269.94 -4066.31,1341.16 -6701.49,4644.77 -6701.49,8351.16 0,492.76 402.77,895.53 895.53,895.53l19208.94 0c492.76,0 895.53,-402.77 895.53,-895.53 -4.29,-3706.39 -2639.46,-7010 -6705.77,-8351.16zm-12464.6 7502.76c359.93,-2455.21 2146.7,-4554.78 4914.71,-5625.99l3127.93 3573.56c312.79,402.77 981.23,402.77 1294.02,0l3127.93 -3573.56c2725.16,1071.21 4559.07,3213.63 4914.71,5625.99l-17379.3 0z"/>
   </g>
  </g>
 </g>
</svg>
