<?xml version="1.0" encoding="UTF-8"?>
<!DOCTYPE svg PUBLIC "-//W3C//DTD SVG 1.1//EN" "http://www.w3.org/Graphics/SVG/1.1/DTD/svg11.dtd">
<!-- Creator: CorelDRAW 2019 (64 Bit) -->
<svg xmlns="http://www.w3.org/2000/svg" xml:space="preserve" width="210mm" height="297mm" version="1.1" style="shape-rendering:geometricPrecision; text-rendering:geometricPrecision; image-rendering:optimizeQuality; fill-rule:evenodd; clip-rule:evenodd"
viewBox="0 0 21000 29700"
 xmlns:xlink="http://www.w3.org/1999/xlink"
 xmlns:xodm="http://www.corel.com/coreldraw/odm/2003">
 <defs>
  <style type="text/css">
   <![CDATA[
    .fil0 {fill:#FEFEFE;fill-rule:nonzero}
   ]]>
  </style>
 </defs>
 <g id="Camada_x0020_1">
  <metadata id="CorelCorpID_0Corel-Layer"/>
  <path class="fil0" d="M10500 14848.68c-58.21,0 -105.83,-18.52 -142.87,-55.57 -37.05,-37.04 -55.57,-84.66 -55.57,-142.87 0,-58.21 18.52,-105.83 55.57,-142.88 37.04,-37.04 84.66,-55.56 142.87,-55.56 58.21,0 105.83,18.52 142.88,55.56 37.04,37.04 55.56,84.67 55.56,142.88 0,58.21 -18.52,105.83 -55.56,142.87 -37.04,37.04 -84.67,55.57 -142.88,55.57zm-423.33 424.65l0 -124.35c0,-33.51 8.38,-62.18 25.13,-85.99 16.76,-23.81 38.37,-41.89 64.82,-54.24 59.09,-26.46 115.76,-46.3 170,-59.53 54.24,-13.23 108.7,-19.84 163.38,-19.84 54.68,0 108.92,6.83 162.72,20.5 53.8,13.67 110.24,33.29 169.33,58.87 27.34,12.35 49.39,30.43 66.15,54.24 16.76,23.81 25.13,52.48 25.13,85.99l0 124.35 -846.66 0z"/>
 </g>
</svg>
