<?xml version="1.0" encoding="UTF-8"?>
<!DOCTYPE svg PUBLIC "-//W3C//DTD SVG 1.1//EN" "http://www.w3.org/Graphics/SVG/1.1/DTD/svg11.dtd">
<!-- Creator: CorelDRAW 2019 (64 Bit) -->
<svg xmlns="http://www.w3.org/2000/svg" xml:space="preserve" width="105.163mm" height="93.8085mm" version="1.1" style="shape-rendering:geometricPrecision; text-rendering:geometricPrecision; image-rendering:optimizeQuality; fill-rule:evenodd; clip-rule:evenodd"
viewBox="0 0 100160.48 89345.85"
 xmlns:xlink="http://www.w3.org/1999/xlink"
 xmlns:xodm="http://www.corel.com/coreldraw/odm/2003">
 <defs>
  <style type="text/css">
   <![CDATA[
    .fil0 {fill:#FEFEFE;fill-rule:nonzero}
   ]]>
  </style>
 </defs>
 <g id="Camada_x0020_1">
  <metadata id="CorelCorpID_0Corel-Layer"/>
  <g id="_1974506944752">
   <g id="_3137_14_">
    <g>
     <path class="fil0" d="M83604.71 29063.25l0 -6499.56 -6429.65 0 -254.01 -12677.01 -10190.6 -9885.73 -44688.31 -0.95 379.16 22561.02 -6122.21 0 38.1 6499.46 -16337.19 0 0 33480.9 0 1219.11 0 17480.2 17060.18 0 0 -17480.2 5582.47 0 0 25585.36 54877.95 0 0 -25582.6 5579.7 0 0 17948.32 17060.18 0 0 -17948.32 0 -751.08 0 -33948.92 -16555.77 0zm-56814.72 -24318.06l37491.19 0 0 7529.04 7894.68 0 108.01 10289.46 -45337.86 0 -156.01 -17818.5zm45985.51 80450.55l-45385.96 0 0 -21432.49 45385.96 0 0 21432.49zm8841.68 -45941.99c-1874.09,0 -3389.02,-1516.65 -3389.02,-3391.69 0,-1872.28 1514.93,-3389.02 3389.02,-3389.02 1866.85,0 3386.26,1516.74 3386.26,3389.02 0.95,1872.28 -1518.46,3391.69 -3386.26,3391.69zm10801.11 0c-1874.09,0 -3389.02,-1516.65 -3389.02,-3391.69 0,-1872.28 1514.93,-3389.02 3389.02,-3389.02 1866.85,0 3386.26,1516.74 3386.26,3389.02 0,1872.28 -1519.41,3391.69 -3386.26,3391.69z"/>
     <path class="fil0" d="M35523.76 69470.87c10152.41,0 20299.48,0 30451.98,0 2551.75,0 2551.75,-3458.84 0,-3458.84 -10149.74,0 -20297.77,0 -30451.98,0 -2549.08,0 -2549.08,3458.84 0,3458.84z"/>
     <path class="fil0" d="M34935.92 77201.34c10149.74,0 20299.48,0 30450.17,0 2551.75,0 2551.75,-3458.84 0,-3458.84 -10149.74,0 -20297.67,0 -30450.17,0 -2551.75,-4.57 -2551.75,3458.84 0,3458.84z"/>
    </g>
   </g>
  </g>
 </g>
</svg>
