<?xml version="1.0" encoding="UTF-8"?>
<!DOCTYPE svg PUBLIC "-//W3C//DTD SVG 1.1//EN" "http://www.w3.org/Graphics/SVG/1.1/DTD/svg11.dtd">
<!-- Creator: CorelDRAW 2019 (64 Bit) -->
<svg xmlns="http://www.w3.org/2000/svg" xml:space="preserve" width="210mm" height="209.984mm" version="1.1" style="shape-rendering:geometricPrecision; text-rendering:geometricPrecision; image-rendering:optimizeQuality; fill-rule:evenodd; clip-rule:evenodd"
viewBox="0 0 20999.98 20998.39"
 xmlns:xlink="http://www.w3.org/1999/xlink"
 xmlns:xodm="http://www.corel.com/coreldraw/odm/2003">
 <defs>
  <style type="text/css">
   <![CDATA[
    .fil0 {fill:#FEFEFE;fill-rule:nonzero}
   ]]>
  </style>
 </defs>
 <g id="Camada_x0020_1">
  <metadata id="CorelCorpID_0Corel-Layer"/>
  <g id="_1974515103632">
   <g>
    <path class="fil0" d="M20636.61 17582.61l-5899.09 -5903.38 -3052.44 3052.44 5903.38 5903.38c484.45,484.45 1281.85,484.45 1766.3,0l1281.85 -1281.85c484.49,-488.73 484.49,-1290.43 0,-1770.59z"/>
    <path class="fil0" d="M11818.03 13415.52l1599.1 -1599.1 -1822.03 -1822.03c1723.43,-2482.25 1483.35,-5920.53 -728.81,-8132.69 -2482.25,-2482.25 -6516.44,-2482.25 -9002.98,0 -2486.54,2482.25 -2482.25,6516.44 0,9002.98 2212.16,2212.16 5650.44,2452.24 8132.69,728.81l1822.03 1822.03zm-8720.03 -3802.68c-1800.6,-1800.6 -1800.6,-4720.13 0,-6516.44 1800.6,-1800.6 4720.13,-1800.6 6516.44,0 1800.6,1800.6 1800.6,4720.13 0,6516.44 -1796.31,1800.59 -4715.84,1800.59 -6516.44,0z"/>
   </g>
  </g>
 </g>
</svg>
